<svg id="Layer_1" data-name="Layer 1" xmlns="http://www.w3.org/2000/svg" viewBox="0 0 1357.53 538.77"><defs><style>.cls-1{fill:#78bbc0;}.cls-2{fill:#42607b;}.cls-20,.cls-3{fill:#fff;}.cls-13,.cls-15,.cls-16,.cls-17,.cls-19,.cls-22,.cls-26,.cls-4,.cls-5,.cls-8,.cls-9{fill:none;stroke-miterlimit:10;}.cls-4,.cls-5,.cls-8{stroke:#42607b;}.cls-4{stroke-width:7.65px;}.cls-17,.cls-5,.cls-8{stroke-width:3px;}.cls-6{fill:#bababa;}.cls-7{fill:#dcdbdb;}.cls-17,.cls-22,.cls-8,.cls-9{stroke-linecap:round;}.cls-9{stroke:#afd1d2;stroke-width:10.67px;}.cls-10{fill:#afd1d2;}.cls-11{fill:#ed5943;}.cls-12{fill:#f3a11e;}.cls-13,.cls-26{stroke:#0d3557;}.cls-13{stroke-width:11.17px;}.cls-14,.cls-18{fill:#0d3557;}.cls-15,.cls-16,.cls-17{stroke:#ed5943;}.cls-15{stroke-width:5.55px;}.cls-16{stroke-width:5px;}.cls-18{font-size:76.34px;}.cls-18,.cls-20{font-family:Oswald-Regular, Oswald;}.cls-19{stroke:#fff;stroke-width:2.44px;}.cls-20{font-size:24.11px;}.cls-21{fill:#d78b28;}.cls-22{stroke:#bababa;stroke-width:13.2px;}.cls-23{fill:#474748;}.cls-24{fill:#f8bb65;}.cls-25{fill:#231f20;}.cls-26{stroke-width:18px;}</style></defs><title>Artboard 28</title><rect class="cls-1" x="194.03" y="201.19" width="268.49" height="145.87" rx="17.36" ry="17.36"/><circle class="cls-2" cx="220.14" cy="221.94" r="10.33"/><circle class="cls-3" cx="351.71" cy="274.61" r="43.49"/><circle class="cls-4" cx="351.71" cy="274.61" r="63.76"/><circle class="cls-5" cx="351.71" cy="274.61" r="50"/><circle class="cls-6" cx="351.71" cy="274.61" r="28.67"/><circle class="cls-7" cx="351.71" cy="274.61" r="16.61"/><circle class="cls-3" cx="358.04" cy="271.61" r="6.33"/><circle class="cls-3" cx="345.37" cy="282.61" r="4.67"/><rect class="cls-2" x="415.47" y="211.61" width="40.33" height="19.51" rx="3.02" ry="3.02"/><path class="cls-1" d="M385.94,176.61H319c-3,0-5.67,2-7,5.22l-7.82,19.36h94.92l-6-18.68C392,179,389.13,176.61,385.94,176.61Z"/><line class="cls-8" x1="200.22" y1="253.69" x2="290.96" y2="253.69"/><line class="cls-8" x1="414.47" y1="253.69" x2="453.92" y2="253.69"/><line class="cls-8" x1="200.22" y1="305.19" x2="294.72" y2="305.19"/><line class="cls-8" x1="408.97" y1="305.19" x2="453.92" y2="305.19"/><line class="cls-9" x1="1213.91" y1="406.95" x2="1043.24" y2="406.95"/><circle class="cls-10" cx="1213.91" cy="347.06" r="65.34"/><path class="cls-2" d="M1213.91,243.5a103.56,103.56,0,1,0,103.56,103.56A103.56,103.56,0,0,0,1213.91,243.5Zm54.55,34.6,14.41,14.41c4.71,4.71,5.08,11.48.77,14.13l-36.86,22.66c-3.35,2.06-8.46.9-12.13-2.77s-4.82-8.73-2.79-12.09l22.45-37.07C1256.94,273,1263.73,273.37,1268.46,278.1Zm-64.74-18.38h20.38c6.66,0,11.71,4.52,10.53,9.45l-10,42.09c-.91,3.83-5.35,6.62-10.53,6.62s-9.59-2.77-10.52-6.58l-10.34-42.09C1192,264.28,1197,259.72,1203.72,259.72Zm-58.77,32.78,14.41-14.41c4.71-4.71,11.48-5.08,14.13-.77l22.66,36.86c2.06,3.35.9,8.46-2.77,12.13s-8.73,4.82-12.09,2.79l-37.07-22.45C1139.87,304,1140.22,297.24,1144.95,292.51Zm-8.89,75.26c-4.94,1.21-9.49-3.84-9.49-10.52V336.87c0-6.66,4.52-11.71,9.45-10.53l42.09,10c3.83.91,6.62,5.35,6.62,10.53s-2.77,9.59-6.58,10.52Zm23.3,48.25-14.41-14.41c-4.71-4.71-5.08-11.48-.77-14.13L1181,364.82c3.35-2.06,8.46-.9,12.13,2.77s4.82,8.73,2.79,12.09l-22.45,37.07C1170.87,421.1,1164.09,420.75,1159.36,416Zm64.74,18.38h-20.38c-6.66,0-11.71-4.52-10.53-9.45l10-42.09c.91-3.83,5.35-6.62,10.53-6.62h0c5.16,0,9.59,2.77,10.52,6.58l10.34,42.09C1235.83,429.84,1230.78,434.4,1224.1,434.4Zm58.77-32.78L1268.46,416c-4.71,4.71-11.48,5.08-14.13.77l-22.66-36.86c-2.06-3.35-.9-8.46,2.77-12.13s8.73-4.82,12.09-2.79l37.07,22.45C1287.95,390.1,1287.6,396.88,1282.87,401.61Zm8.93-33.83-42.09-10c-3.83-.91-6.62-5.35-6.62-10.53s2.77-9.59,6.58-10.52l42.09-10.34c4.94-1.21,9.49,3.84,9.49,10.52v20.38C1301.25,363.91,1296.72,369,1291.8,367.78Z"/><circle class="cls-11" cx="1213.91" cy="347.06" r="7.26"/><circle class="cls-12" cx="1213.91" cy="333.28" r="3.11"/><circle class="cls-12" cx="1201.98" cy="340.17" r="3.11" transform="translate(306.39 1211.03) rotate(-60)"/><circle class="cls-12" cx="1201.98" cy="353.95" r="3.11" transform="translate(-15.94 648.41) rotate(-30)"/><circle class="cls-12" cx="1213.91" cy="360.84" r="3.11"/><circle class="cls-12" cx="1225.84" cy="353.95" r="3.11" transform="translate(306.39 1238.58) rotate(-60)"/><circle class="cls-12" cx="1225.84" cy="340.17" r="3.11" transform="translate(-5.85 658.49) rotate(-30)"/><line class="cls-13" x1="545.45" y1="332.66" x2="812.95" y2="332.66"/><line class="cls-13" x1="545.45" y1="358.37" x2="812.95" y2="358.37"/><line class="cls-13" x1="545.45" y1="384.07" x2="812.95" y2="384.07"/><line class="cls-13" x1="545.45" y1="409.78" x2="812.95" y2="409.78"/><line class="cls-13" x1="545.45" y1="435.49" x2="812.95" y2="435.49"/><line class="cls-13" x1="545.45" y1="461.2" x2="812.95" y2="461.2"/><line class="cls-13" x1="545.45" y1="486.91" x2="812.95" y2="486.91"/><rect class="cls-14" x="566.45" y="315.22" width="224" height="188.28"/><rect class="cls-7" x="577.26" y="325.57" width="200.6" height="167.59" rx="17.37" ry="17.37"/><circle class="cls-15" cx="677.56" cy="409.78" r="67.39"/><circle class="cls-16" cx="677.56" cy="409.78" r="49.93"/><line class="cls-17" x1="677.56" y1="325.57" x2="677.56" y2="493.16"/><line class="cls-17" x1="773.77" y1="409.78" x2="581.34" y2="409.78"/><text class="cls-18" transform="translate(659.12 441.24)">3</text><line class="cls-13" x1="541.95" y1="315.22" x2="541.95" y2="503.5"/><line class="cls-13" x1="813.95" y1="315.22" x2="813.95" y2="503.5"/><path class="cls-11" d="M450.41,382.83v-.16H278.34v.16a25,25,0,0,1-25,25h0v51.86h.45a24.56,24.56,0,0,1,24.56,24.56H450.41A24.56,24.56,0,0,1,475,459.71h.45V407.84h0A25,25,0,0,1,450.41,382.83Z"/><rect class="cls-19" x="288.51" y="391.78" width="154.17" height="80.95" rx="1.74" ry="1.74"/><line class="cls-19" x1="424.37" y1="391.78" x2="424.37" y2="472.72"/><line class="cls-19" x1="306.81" y1="391.78" x2="306.81" y2="472.72"/><text class="cls-20" transform="translate(316.66 440.83)">ADMIT ONE</text><polygon class="cls-12" points="364.37 396.66 367.29 402.57 373.81 403.52 369.09 408.12 370.21 414.62 364.37 411.55 358.54 414.62 359.65 408.12 354.94 403.52 361.46 402.57 364.37 396.66"/><polygon class="cls-12" points="341.61 396.66 344.52 402.57 351.05 403.52 346.32 408.12 347.44 414.62 341.61 411.55 335.77 414.62 336.89 408.12 332.17 403.52 338.69 402.57 341.61 396.66"/><polygon class="cls-12" points="320.13 396.66 323.05 402.57 329.57 403.52 324.85 408.12 325.96 414.62 320.13 411.55 314.3 414.62 315.41 408.12 310.69 403.52 317.21 402.57 320.13 396.66"/><polygon class="cls-12" points="410.22 396.66 413.14 402.57 419.66 403.52 414.94 408.12 416.06 414.62 410.22 411.55 404.39 414.62 405.5 408.12 400.78 403.52 407.31 402.57 410.22 396.66"/><polygon class="cls-12" points="387.53 396.66 390.44 402.57 396.96 403.52 392.25 408.12 393.36 414.62 387.53 411.55 381.69 414.62 382.81 408.12 378.09 403.52 384.61 402.57 387.53 396.66"/><polygon class="cls-12" points="364.37 446.31 367.29 452.23 373.81 453.17 369.09 457.77 370.21 464.27 364.37 461.2 358.54 464.27 359.65 457.77 354.94 453.17 361.46 452.23 364.37 446.31"/><polygon class="cls-12" points="341.61 446.31 344.52 452.23 351.05 453.17 346.32 457.77 347.44 464.27 341.61 461.2 335.77 464.27 336.89 457.77 332.17 453.17 338.69 452.23 341.61 446.31"/><polygon class="cls-12" points="320.13 446.31 323.05 452.23 329.57 453.17 324.85 457.77 325.96 464.27 320.13 461.2 314.3 464.27 315.41 457.77 310.69 453.17 317.21 452.23 320.13 446.31"/><polygon class="cls-12" points="410.22 446.31 413.14 452.23 419.66 453.17 414.94 457.77 416.06 464.27 410.22 461.2 404.39 464.27 405.5 457.77 400.78 453.17 407.31 452.23 410.22 446.31"/><polygon class="cls-12" points="387.53 446.31 390.44 452.23 396.96 453.17 392.25 457.77 393.36 464.27 387.53 461.2 381.69 464.27 382.81 457.77 378.09 453.17 384.61 452.23 387.53 446.31"/><path class="cls-21" d="M1018.39,366.15l-10.51-60.54a17.74,17.74,0,0,0-20.51-14.45l-28.18,4.89,1.51,8.72,28.39-4.93a8.49,8.49,0,0,1,9.82,6.91l10.64,61.33a8.49,8.49,0,0,1-6.91,9.82l-28.39,4.93,1.51,8.72,28.18-4.89A17.74,17.74,0,0,0,1018.39,366.15Z"/><polygon class="cls-12" points="999.31 490.59 852.36 490.59 897.58 245.74 954.66 245.74 999.31 490.59"/><rect class="cls-21" x="845.3" y="487.64" width="161.08" height="20.35" rx="2.11" ry="2.11"/><rect class="cls-21" x="892.49" y="233.31" width="66.69" height="12.43" rx="2.18" ry="2.18"/><polygon class="cls-14" points="896.19 245.74 955.48 245.74 962.9 290.9 889.24 290.9 896.19 245.74"/><polyline class="cls-22" points="26.29 494.83 109.9 420.74 190.23 494.83"/><path class="cls-23" d="M82.27,110.29v44.25L6.86,200.24C3.51,202.27,0,198,0,191.84V73c0-6.13,3.51-10.43,6.86-8.4Z"/><path class="cls-23" d="M138.45,154.54V110.29l75.41-45.7c3.35-2,6.86,2.26,6.86,8.4V191.84c0,6.13-3.51,10.43-6.86,8.4Z"/><path class="cls-6" d="M131.59,103.43H87.34L41.64,28c-2-3.35,2.26-6.86,8.4-6.86H168.89c6.13,0,10.43,3.51,8.4,6.86Z"/><path class="cls-6" d="M87.34,164.2h44.25l45.7,75.41c2,3.35-2.26,6.86-8.4,6.86H50c-6.13,0-10.43-3.51-8.4-6.86Z"/><circle class="cls-21" cx="109.47" cy="132.41" r="40.46"/><circle class="cls-24" cx="109.47" cy="132.41" r="28.98"/><line class="cls-22" x1="109.47" y1="246.46" x2="109.47" y2="494.83"/><rect class="cls-25" x="99.24" y="379.26" width="21.31" height="52.87" rx="1.68" ry="1.68"/><path class="cls-11" d="M1414.65,463.53h-54.1a11.76,11.76,0,0,1-11.69-10.46L1334,320h109l-16.71,133.2A11.76,11.76,0,0,1,1414.65,463.53Z"/><line class="cls-26" x1="1365.28" y1="463.53" x2="1357.53" y2="320.03"/></svg>