<svg id="Layer_1" data-name="Layer 1" xmlns="http://www.w3.org/2000/svg" viewBox="0 0 500 400"><defs><style>.cls-1{fill:#ed5943;}.cls-2{fill:#fff;opacity:0.61;}</style></defs><title>Artboard 2</title><rect class="cls-1" width="499.47" height="400"/><path class="cls-2" d="M7.5,197.63c-108.71,0-196.83,88.13-196.83,196.83S-101.21,591.29,7.5,591.29s196.83-88.13,196.83-196.83S116.21,197.63,7.5,197.63Zm103.69,65.76,27.39,27.39c9,9,9.65,21.81,1.46,26.85L70,360.7c-6.37,3.92-16.08,1.7-23-5.26s-9.17-16.6-5.3-23L84.29,262C89.3,253.74,102.2,254.4,111.19,263.39ZM-11.87,228.46H26.87c12.67,0,22.25,8.6,20,18l-19.08,80C26.07,333.69,17.64,339,7.79,339s-18.22-5.26-20-12.5l-19.65-80C-34.17,237.12-24.57,228.46-11.87,228.46Zm45,158a5.91,5.91,0,1,1,2.16-8.08A5.91,5.91,0,0,1,33.14,386.49Zm2.16,24a5.91,5.91,0,1,1-2.16-8.08A5.91,5.91,0,0,1,35.3,410.51ZM7.5,408.27a13.81,13.81,0,1,1,13.81-13.81A13.81,13.81,0,0,1,7.5,408.27Zm5.91,12.38a5.91,5.91,0,1,1-5.91-5.91A5.91,5.91,0,0,1,13.41,420.65ZM1.59,368.27a5.91,5.91,0,1,1,5.91,5.91A5.91,5.91,0,0,1,1.59,368.27Zm-11.64,16.05a5.91,5.91,0,0,1-8.08,2.16,5.91,5.91,0,0,1-2.16-8.08,5.91,5.91,0,0,1,8.08-2.16A5.91,5.91,0,0,1-10.06,384.32Zm-2.16,28.35a5.91,5.91,0,0,1-8.08-2.16,5.91,5.91,0,0,1,2.16-8.08,5.91,5.91,0,0,1,8.08,2.16A5.91,5.91,0,0,1-12.22,412.68Zm-111.35-121.9,27.39-27.39c9-9,21.81-9.65,26.85-1.46L-26.26,332c3.92,6.37,1.7,16.08-5.26,23s-16.6,9.17-23,5.3L-125,317.67C-133.22,312.67-132.56,299.76-123.57,290.78Zm-16.89,143c-9.38,2.31-18-7.29-18-20V375.1c0-12.67,8.6-22.25,18-20l80,19.08c7.28,1.74,12.58,10.17,12.58,20s-5.26,18.22-12.5,20Zm44.28,91.71-27.39-27.39c-9-9-9.65-21.81-1.46-26.85L-55,428.22c6.37-3.92,16.08-1.7,23,5.26s9.17,16.6,5.3,23l-42.67,70.46C-74.3,535.19-87.2,534.52-96.19,525.53ZM26.87,560.46H-11.87c-12.67,0-22.25-8.6-20-18l19.08-80c1.74-7.28,10.17-12.58,20-12.58h0c9.81,0,18.22,5.26,20,12.5l19.65,80C49.17,551.81,39.57,560.46,26.87,560.46Zm111.71-62.31-27.39,27.39c-9,9-21.81,9.65-26.85,1.46L41.26,456.94c-3.92-6.37-1.7-16.08,5.26-23s16.6-9.17,23-5.3L140,471.25C148.23,476.26,147.56,489.16,138.57,498.15Zm17-64.3-80-19.08C68.27,413,63,404.6,63,394.75s5.26-18.22,12.5-20l80-19.65c9.38-2.31,18,7.29,18,20v38.73C173.5,426.49,164.9,436.08,155.54,433.84Z"/><path class="cls-2" d="M505.26-87.3a114.08,114.08,0,1,0,83.6,138A114.08,114.08,0,0,0,505.26-87.3ZM554.54-36l11.63,19.2c3.8,6.28,2.42,13.61-2.89,15.32L517.9,13.13c-4.13,1.33-9.29-1.26-12.25-6.15s-2.87-10.61.19-13.67l33.75-33.77C543.55-44.42,550.72-42.26,554.54-36ZM490.1-72.62l21.8,5.35c7.13,1.75,11.34,7.91,8.79,12.87L498.9-12c-2,3.86-7.46,5.67-13,4.31s-9.53-5.48-9.53-9.8V-65.23C476.35-70.83,482.95-74.37,490.1-72.62Zm3.5,95.17a3.43,3.43,0,1,1,2.33-4.25A3.43,3.43,0,0,1,493.6,22.55Zm-2.1,13.82a3.43,3.43,0,1,1-.1-4.85A3.43,3.43,0,0,1,491.5,36.37Zm-15.34-5.1a8,8,0,1,1,9.68-5.86A8,8,0,0,1,476.16,31.27Zm1.62,7.79a3.43,3.43,0,1,1-2.51-4.15A3.43,3.43,0,0,1,477.78,39.05Zm.58-31.12a3.43,3.43,0,1,1,2.51,4.15A3.43,3.43,0,0,1,478.36,7.94Zm-8.77,7.43a3.43,3.43,0,1,1-.1-4.85A3.43,3.43,0,0,1,469.59,15.37ZM464.45,31a3.43,3.43,0,1,1,2.33-4.25A3.43,3.43,0,0,1,464.45,31ZM418.61-53l19.2-11.63c6.28-3.8,13.61-2.42,15.32,2.89L467.7-16.33C469-12.2,466.43-7,461.55-4.09s-10.61,2.87-13.67-.19L414.12-38C410.16-42,412.31-49.16,418.61-53ZM389.34,25.21c-5.6,0-9.14-6.59-7.39-13.75l5.35-21.8c1.75-7.13,7.91-11.34,12.87-8.79L442.57,2.67c3.86,2,5.67,7.46,4.31,13s-5.48,9.53-9.8,9.53ZM401.6,83,390,63.75c-3.8-6.28-2.42-13.61,2.89-15.32l45.38-14.57c4.13-1.33,9.29,1.26,12.25,6.15s2.87,10.61-.19,13.67L416.54,87.45C412.59,91.41,405.42,89.25,401.6,83ZM466,119.61l-21.8-5.35c-7.13-1.75-11.34-7.91-8.79-12.87L457.24,59c2-3.86,7.46-5.67,13-4.31h0c5.52,1.35,9.53,5.48,9.53,9.8v47.74C479.79,117.82,473.19,121.37,466,119.61ZM537.52,100l-19.2,11.63C512,115.4,504.71,114,503,108.71L488.44,63.33c-1.33-4.13,1.26-9.29,6.15-12.25s10.61-2.87,13.67.19L542,85C546,89,543.82,96.15,537.52,100ZM556,66.12,513.57,44.33c-3.86-2-5.67-7.46-4.31-13s5.48-9.53,9.8-9.53h47.74c5.6,0,9.14,6.59,7.39,13.75l-5.35,21.8C567.08,64.46,560.92,68.67,556,66.12Z"/></svg>