<svg id="Layer_1" data-name="Layer 1" xmlns="http://www.w3.org/2000/svg" viewBox="0 0 375 500"><defs><style>.cls-1{fill:#ed5943;}.cls-2{fill:#fff;opacity:0.61;}</style></defs><title>Artboard 1</title><rect class="cls-1" width="374.37" height="499.47"/><path class="cls-2" d="M0,253.26c-108.71,0-196.83,88.13-196.83,196.83S-108.71,646.92,0,646.92,196.83,558.8,196.83,450.09,108.71,253.26,0,253.26ZM103.69,319l27.39,27.39c9,9,9.65,21.81,1.46,26.85L62.48,416.33c-6.37,3.92-16.08,1.7-23-5.26s-9.17-16.6-5.3-23l42.67-70.46C81.8,309.36,94.7,310,103.69,319ZM-19.37,284.09H19.37c12.67,0,22.25,8.6,20,18L20.31,382c-1.74,7.28-10.17,12.58-20,12.58s-18.22-5.26-20-12.5l-19.65-80C-41.67,292.74-32.07,284.09-19.37,284.09Zm45,158A5.91,5.91,0,1,1,27.8,434,5.91,5.91,0,0,1,25.64,442.12Zm2.16,24a5.91,5.91,0,1,1-2.16-8.08A5.91,5.91,0,0,1,27.8,466.14ZM0,463.9a13.81,13.81,0,1,1,0-27.61A13.81,13.81,0,1,1,0,463.9Zm5.91,12.38A5.91,5.91,0,0,1,0,482.19a5.91,5.91,0,0,1,0-11.83A5.91,5.91,0,0,1,5.91,476.28ZM-5.91,423.9A5.91,5.91,0,0,1,0,418a5.91,5.91,0,0,1,0,11.83A5.91,5.91,0,0,1-5.91,423.9ZM-17.56,440a5.91,5.91,0,0,1-8.08,2.16A5.91,5.91,0,0,1-27.8,434a5.91,5.91,0,0,1,8.08-2.16A5.91,5.91,0,0,1-17.56,440Zm-2.16,28.35a5.91,5.91,0,0,1-8.08-2.16,5.91,5.91,0,0,1,2.16-8.08,5.91,5.91,0,0,1,8.08,2.16A5.91,5.91,0,0,1-19.72,468.3ZM-131.07,346.4-103.69,319c9-9,21.81-9.65,26.85-1.46l43.08,70.05c3.92,6.37,1.7,16.08-5.26,23s-16.6,9.17-23,5.3l-70.46-42.67C-140.72,368.29-140.06,355.39-131.07,346.4Zm-16.89,143c-9.38,2.31-18-7.29-18-20V430.72c0-12.67,8.6-22.25,18-20l80,19.08c7.28,1.74,12.58,10.17,12.58,20S-60.73,468-68,469.8Zm44.28,91.71-27.39-27.39c-9-9-9.65-21.81-1.46-26.85l70.05-43.08c6.37-3.92,16.08-1.7,23,5.26s9.17,16.6,5.3,23l-42.67,70.46C-81.8,590.81-94.7,590.15-103.69,581.16ZM19.37,616.09H-19.37c-12.67,0-22.25-8.6-20-18l19.08-80c1.74-7.28,10.17-12.58,20-12.58h0c9.81,0,18.22,5.26,20,12.5l19.65,80C41.67,607.43,32.07,616.09,19.37,616.09Zm111.71-62.31-27.39,27.39c-9,9-21.81,9.65-26.85,1.46L33.76,512.56c-3.92-6.37-1.7-16.08,5.26-23s16.6-9.17,23-5.3l70.46,42.67C140.73,531.88,140.06,544.79,131.07,553.77Zm17-64.3L68,470.4c-7.28-1.74-12.58-10.17-12.58-20s5.26-18.22,12.5-20l80-19.65c9.38-2.31,18,7.29,18,20v38.73C166,482.12,157.4,491.7,148,489.47Z"/><path class="cls-2" d="M379.76-88.67a114.08,114.08,0,1,0,83.6,138A114.08,114.08,0,0,0,379.76-88.67ZM429-37.33l11.63,19.2c3.8,6.28,2.42,13.61-2.89,15.32L392.4,11.75c-4.13,1.33-9.29-1.26-12.25-6.15S377.29-5,380.34-8.06l33.75-33.77C418.05-45.79,425.22-43.63,429-37.33ZM364.6-74l21.8,5.35c7.13,1.75,11.34,7.91,8.79,12.87L373.4-13.37c-2,3.86-7.46,5.67-13,4.31s-9.53-5.48-9.53-9.8V-66.6C350.85-72.2,357.45-75.75,364.6-74Zm3.5,95.17a3.43,3.43,0,1,1,2.33-4.25A3.43,3.43,0,0,1,368.1,21.18ZM366,35a3.43,3.43,0,1,1-.1-4.85A3.43,3.43,0,0,1,366,35Zm-15.34-5.1A8,8,0,1,1,360.34,24,8,8,0,0,1,350.66,29.9Zm1.62,7.79a3.43,3.43,0,1,1-2.51-4.15A3.43,3.43,0,0,1,352.28,37.68Zm.58-31.12a3.43,3.43,0,1,1,2.51,4.15A3.43,3.43,0,0,1,352.86,6.57ZM344.09,14a3.43,3.43,0,1,1-.1-4.85A3.43,3.43,0,0,1,344.09,14ZM339,29.65a3.43,3.43,0,1,1,2.33-4.25A3.43,3.43,0,0,1,339,29.65Zm-45.84-84L312.31-66c6.28-3.8,13.61-2.42,15.32,2.89L342.2-17.71c1.33,4.13-1.26,9.29-6.15,12.25s-10.61,2.87-13.67-.19L288.62-39.4C284.66-43.36,286.81-50.53,293.11-54.35ZM263.84,23.84c-5.6,0-9.14-6.59-7.39-13.75l5.35-21.8c1.75-7.13,7.91-11.34,12.87-8.79L317.07,1.29c3.86,2,5.67,7.46,4.31,13s-5.48,9.53-9.8,9.53ZM276.1,81.58l-11.63-19.2c-3.8-6.28-2.42-13.61,2.89-15.32L312.74,32.5c4.13-1.33,9.29,1.26,12.25,6.15s2.87,10.61-.19,13.67L291,86.08C287.09,90,279.92,87.88,276.1,81.58Zm64.44,36.66-21.8-5.35c-7.13-1.75-11.34-7.91-8.79-12.87l21.79-42.39c2-3.86,7.46-5.67,13-4.31h0c5.52,1.35,9.53,5.48,9.53,9.8v47.74C354.29,116.45,347.69,120,340.54,118.24ZM412,98.6l-19.2,11.63c-6.28,3.8-13.61,2.42-15.32-2.89L362.94,62c-1.33-4.13,1.26-9.29,6.15-12.25s10.61-2.87,13.67.19l33.77,33.75C420.48,87.61,418.32,94.78,412,98.6Zm18.43-33.85L388.07,43c-3.86-2-5.67-7.46-4.31-13s5.48-9.53,9.8-9.53h47.74c5.6,0,9.14,6.59,7.39,13.75L443.33,56C441.58,63.09,435.42,67.29,430.46,64.74Z"/></svg>