<svg id="Layer_1" data-name="Layer 1" xmlns="http://www.w3.org/2000/svg" viewBox="0 0 386.73 178"><defs><style>.cls-1{fill:#ed5943;}.cls-2{fill:#efeded;}.cls-3{fill:#f3a11e;}.cls-4{fill:#0d3557;}.cls-5{fill:#78bbc0;}.cls-6{fill:#fff;}</style></defs><title>Artboard 42</title><rect class="cls-1" y="8.49" width="169.51" height="169.51"/><polygon class="cls-2" points="61.25 8.49 61.25 51.7 73.61 44.04 84.35 50.7 95.9 43.54 108.25 51.2 108.25 8.49 61.25 8.49"/><rect class="cls-3" x="177.9" width="66.49" height="178"/><rect class="cls-4" x="187.23" y="15.7" width="38.49" height="22"/><rect class="cls-4" x="187.23" y="43.2" width="30.98" height="11"/><rect class="cls-5" x="103.73" y="144.7" width="52.5" height="21.5"/><rect class="cls-5" x="250.23" y="100.7" width="136.5" height="77.3"/><polygon class="cls-6" points="290.98 100.7 290.98 127.2 305.48 123.2 318.48 127.2 331.48 122.95 345.98 127.2 345.98 100.7 290.98 100.7"/><rect class="cls-1" x="293.73" y="139.35" width="52.25" height="17.68"/><rect class="cls-3" x="299.31" y="160.04" width="38.33" height="4.33"/></svg>