<svg id="Layer_1" data-name="Layer 1" xmlns="http://www.w3.org/2000/svg" viewBox="0 0 447.9 300.23"><defs><style>.cls-1,.cls-5{fill:#dcdbdb;}.cls-2{fill:#1e1e1e;}.cls-3{fill:#c4e5e5;}.cls-4{fill:#bababa;}.cls-5{stroke:#606160;stroke-width:4.31px;}.cls-5,.cls-8{stroke-linecap:round;}.cls-11,.cls-15,.cls-16,.cls-18,.cls-19,.cls-20,.cls-21,.cls-22,.cls-23,.cls-24,.cls-5,.cls-6,.cls-8{stroke-miterlimit:10;}.cls-11,.cls-15,.cls-16,.cls-18,.cls-19,.cls-20,.cls-21,.cls-22,.cls-23,.cls-24,.cls-6,.cls-8{fill:none;}.cls-6{stroke:#1e1e1e;stroke-width:3.13px;}.cls-7{fill:#ed5943;}.cls-15,.cls-16,.cls-8{stroke:#0d3557;}.cls-8{stroke-width:5px;}.cls-9{fill:#f3a11e;}.cls-10{fill:#0d3557;}.cls-11{stroke:#f3a11e;stroke-width:3.6px;}.cls-12{fill:#42607b;}.cls-13{fill:#78bbc0;}.cls-14{fill:#afd1d2;}.cls-15,.cls-18{stroke-width:3px;}.cls-17{fill:#fff;}.cls-18{stroke:#78bbc0;}.cls-19,.cls-20{stroke:#fff;}.cls-19{stroke-width:2px;}.cls-20,.cls-21{stroke-width:1.77px;}.cls-21,.cls-24{stroke:#ed5943;}.cls-22{stroke:#42607b;}.cls-23{stroke:#bb382b;}</style></defs><title>Artboard 8</title><path class="cls-1" d="M116.27,112.4H309.53a12,12,0,0,1,12,12V240.81a17.91,17.91,0,0,1-17.91,17.91H122.23a17.91,17.91,0,0,1-17.91-17.91V124.36A12,12,0,0,1,116.27,112.4Z"/><path class="cls-2" d="M115.72,112.4H310.08a11.4,11.4,0,0,1,11.4,11.4V233.3a0,0,0,0,1,0,0H104.32a0,0,0,0,1,0,0V123.8A11.4,11.4,0,0,1,115.72,112.4Z"/><rect class="cls-3" x="115.52" y="122.24" width="193.68" height="100.82" rx="2.44" ry="2.44"/><polygon class="cls-4" points="238.75 281.93 189.92 281.93 192.79 258.72 235.31 258.72 238.75 281.93"/><line class="cls-5" x1="173.83" y1="282.93" x2="254.84" y2="282.93"/><path class="cls-1" d="M334.67,279.54c0-7.57,7.31-13.72,16.33-13.72s16.33,6.14,16.33,13.72Z"/><line class="cls-6" x1="332.54" y1="281.04" x2="369.46" y2="281.04"/><rect class="cls-7" x="123.5" y="131.04" width="75" height="44" rx="4.36" ry="4.36"/><rect class="cls-7" x="201.25" y="131.04" width="75" height="44" rx="4.36" ry="4.36"/><line class="cls-8" x1="128.42" y1="179.38" x2="193.59" y2="179.38"/><line class="cls-8" x1="206.17" y1="179.38" x2="271.34" y2="179.38"/><rect class="cls-9" x="123.5" y="185.56" width="152.75" height="32.31" rx="4.32" ry="4.32"/><rect class="cls-10" x="279.34" y="131.04" width="22.5" height="44" rx="3.53" ry="3.53"/><rect class="cls-10" x="279.34" y="177.04" width="22.5" height="40.83" rx="3.53" ry="3.53"/><rect class="cls-10" x="126.17" y="188.38" width="10.67" height="27.5" rx="3.28" ry="3.28"/><circle class="cls-7" cx="125.07" cy="127.31" r="1.56"/><circle class="cls-7" cx="130.59" cy="127.31" r="1.56"/><circle class="cls-7" cx="136.11" cy="127.31" r="1.56"/><circle class="cls-2" cx="214.34" cy="246.38" r="4"/><path class="cls-9" d="M78.94,265.09c0,14.53-8.68,19.38-19.38,19.38s-19.39-5.1-19.38-19.38a19.38,19.38,0,0,1,38.77,0Z"/><rect class="cls-9" x="40.17" y="245.71" width="38.77" height="18.5"/><path class="cls-11" d="M75.19,251.71c7.07,0,12.81,4.53,12.81,10.11s-5.73,10.11-12.81,10.11"/><line class="cls-8" x1="40.16" y1="244.04" x2="78.94" y2="244.04"/><rect class="cls-12" x="338.08" y="73.08" width="109.82" height="134.38" rx="6.15" ry="6.15"/><rect class="cls-7" x="345.14" y="81.72" width="95.7" height="117.1" rx="6.15" ry="6.15"/><path class="cls-9" d="M84.42,22h8.43a2.82,2.82,0,0,1,2.82,2.82V83a0,0,0,0,1,0,0H81.6a0,0,0,0,1,0,0V24.86A2.82,2.82,0,0,1,84.42,22Z"/><path class="cls-13" d="M196,22h8.43a2.82,2.82,0,0,1,2.82,2.82V83a0,0,0,0,1,0,0H193.22a0,0,0,0,1,0,0V24.86A2.82,2.82,0,0,1,196,22Z"/><path class="cls-10" d="M98.49,0h5.43a2.82,2.82,0,0,1,2.82,2.82V83a0,0,0,0,1,0,0H95.67a0,0,0,0,1,0,0V2.82A2.82,2.82,0,0,1,98.49,0Z"/><path class="cls-13" d="M148,0H161.1a2.82,2.82,0,0,1,2.82,2.82V83a0,0,0,0,1,0,0h-18.7a0,0,0,0,1,0,0V2.82A2.82,2.82,0,0,1,148,0Z"/><path class="cls-14" d="M126.31,9.93H134a2.82,2.82,0,0,1,2.82,2.82V83a0,0,0,0,1,0,0H123.49a0,0,0,0,1,0,0V12.75A2.82,2.82,0,0,1,126.31,9.93Z"/><path class="cls-10" d="M183.5,16.77h7.71A2.82,2.82,0,0,1,194,19.6V83a0,0,0,0,1,0,0H180.68a0,0,0,0,1,0,0V19.6A2.82,2.82,0,0,1,183.5,16.77Z"/><path class="cls-7" d="M109.56,14h11.12a2.82,2.82,0,0,1,2.82,2.82V83a0,0,0,0,1,0,0H106.74a0,0,0,0,1,0,0V16.86A2.82,2.82,0,0,1,109.56,14Z"/><path class="cls-7" d="M166.74,14h11.12a2.82,2.82,0,0,1,2.82,2.82V83a0,0,0,0,1,0,0H163.92a0,0,0,0,1,0,0V16.86A2.82,2.82,0,0,1,166.74,14Z"/><path class="cls-9" d="M139.66,32.39h2.74a2.82,2.82,0,0,1,2.82,2.82V83a0,0,0,0,1,0,0h-8.38a0,0,0,0,1,0,0V35.21A2.82,2.82,0,0,1,139.66,32.39Z"/><ellipse class="cls-10" cx="115.11" cy="50.95" rx="4.19" ry="13.26"/><line class="cls-15" x1="106.74" y1="22.04" x2="123.49" y2="22.04"/><line class="cls-16" x1="106.74" y1="26.21" x2="123.49" y2="26.21"/><rect class="cls-17" x="106.74" y="73.21" width="16.76" height="9.83"/><line class="cls-18" x1="101.21" y1="22.04" x2="101.21" y2="63.38"/><circle class="cls-7" cx="101.21" cy="6.38" r="3.56"/><path class="cls-10" d="M91.91,23.13H85.36A2.34,2.34,0,0,0,83,25.48v8.89H94.25V25.48A2.34,2.34,0,0,0,91.91,23.13Z"/><line class="cls-19" x1="86.46" y1="40.13" x2="86.46" y2="71.88"/><line class="cls-20" x1="89.84" y1="43.63" x2="89.84" y2="68.38"/><rect class="cls-10" x="83.02" y="74.38" width="11.23" height="5.75"/><rect class="cls-10" x="46.34" y="83.04" width="241.5" height="9.83"/><rect class="cls-10" y="284.48" width="419.1" height="15.75"/><circle class="cls-3" cx="394.71" cy="143.14" r="27.57"/><path class="cls-2" d="M394.71,99.45a43.69,43.69,0,1,0,43.69,43.69A43.69,43.69,0,0,0,394.71,99.45Zm23,14.6,6.08,6.08c2,2,2.14,4.84.32,6l-15.55,9.56c-1.41.87-3.57.38-5.12-1.17s-2-3.68-1.18-5.1l9.47-15.64C412.87,111.91,415.73,112.05,417.72,114Zm-27.31-7.75H399c2.81,0,4.94,1.91,4.44,4L399.22,128c-.39,1.62-2.26,2.79-4.44,2.79s-4-1.17-4.44-2.77L386,110.3C385.46,108.22,387.59,106.3,390.41,106.3Zm-24.8,13.83,6.08-6.08c2-2,4.84-2.14,6-.32l9.56,15.55c.87,1.41.38,3.57-1.17,5.12s-3.68,2-5.1,1.18l-15.64-9.47C363.47,125,363.62,122.12,365.61,120.13Zm-3.75,31.75c-2.08.51-4-1.62-4-4.44v-8.6c0-2.81,1.91-4.94,4-4.44l17.76,4.23c1.62.39,2.79,2.26,2.79,4.44s-1.17,4-2.77,4.44Zm9.83,20.36-6.08-6.08c-2-2-2.14-4.84-.32-6l15.55-9.56c1.41-.87,3.57-.38,5.12,1.17s2,3.68,1.18,5.1l-9.47,15.64C376.55,174.38,373.69,174.23,371.69,172.24ZM399,180h-8.6c-2.81,0-4.94-1.91-4.44-4l4.23-17.76c.39-1.62,2.26-2.79,4.44-2.79h0c2.18,0,4,1.17,4.44,2.77L403.45,176C404,178.07,401.83,180,399,180Zm24.8-13.83-6.08,6.08c-2,2-4.84,2.14-6,.32L402.2,157c-.87-1.41-.38-3.57,1.17-5.12s3.68-2,5.1-1.18l15.64,9.47C425.95,161.3,425.8,164.16,423.8,166.16Zm3.77-14.27-17.76-4.23c-1.62-.39-2.79-2.26-2.79-4.44s1.17-4,2.77-4.44l17.76-4.36c2.08-.51,4,1.62,4,4.44v8.6C431.56,150.25,429.65,152.38,427.57,151.89Z"/><circle class="cls-7" cx="394.71" cy="143.14" r="3.06"/><circle class="cls-9" cx="394.71" cy="137.33" r="1.31"/><circle class="cls-9" cx="389.67" cy="140.24" r="1.31" transform="translate(73.39 407.59) rotate(-60)"/><circle class="cls-9" cx="389.67" cy="146.05" r="1.31" transform="translate(-20.82 214.4) rotate(-30)"/><circle class="cls-9" cx="394.71" cy="148.96" r="1.31"/><circle class="cls-9" cx="399.74" cy="146.05" r="1.31" transform="translate(73.39 419.21) rotate(-60)"/><circle class="cls-9" cx="399.74" cy="140.24" r="1.31" transform="translate(-16.56 218.66) rotate(-30)"/><polygon class="cls-10" points="130.16 21.25 126.21 30.38 130.16 39.25 133.59 30.25 130.16 21.25"/><line class="cls-16" x1="123.5" y1="15.04" x2="136.84" y2="15.04"/><line class="cls-15" x1="130.17" y1="42.71" x2="130.17" y2="77.25"/><circle class="cls-17" cx="141.03" cy="37.69" r="2.06"/><line class="cls-20" x1="141.03" y1="44.75" x2="141.03" y2="71.88"/><circle class="cls-7" cx="141.03" cy="77.25" r="2.06"/><line class="cls-21" x1="145.22" y1="8" x2="163.92" y2="8"/><line class="cls-22" x1="145.22" y1="11.19" x2="163.92" y2="11.19"/><rect class="cls-10" x="151.09" y="18.63" width="7.63" height="28.86"/><rect class="cls-14" x="145.22" y="63.38" width="18.7" height="19.67"/><circle class="cls-7" cx="154.57" cy="73.21" r="5.25"/><line class="cls-20" x1="174.3" y1="25.13" x2="174.3" y2="48.49"/><line class="cls-20" x1="174.3" y1="53.7" x2="174.3" y2="77.05"/><rect class="cls-3" x="167.09" y="18.04" width="11.25" height="3.21"/><line class="cls-20" x1="169.5" y1="28.75" x2="169.5" y2="71.88"/><ellipse class="cls-9" cx="187.35" cy="34.38" rx="2.93" ry="9.25"/><line class="cls-23" x1="180.68" y1="47.49" x2="194.03" y2="47.49"/><line class="cls-23" x1="180.68" y1="50.17" x2="194.03" y2="50.17"/><line class="cls-23" x1="180.68" y1="52.85" x2="194.03" y2="52.85"/><rect class="cls-3" x="180.68" y="77.05" width="13.35" height="5.99"/><rect class="cls-3" x="197.38" y="32.86" width="5.75" height="17.31"/><rect class="cls-3" x="197.38" y="66.53" width="5.75" height="13.52"/><circle class="cls-7" cx="200.25" cy="58.31" r="2.81"/><line class="cls-24" x1="194.03" y1="28.25" x2="207.29" y2="28.25"/></svg>