<svg id="Layer_1" data-name="Layer 1" xmlns="http://www.w3.org/2000/svg" viewBox="0 0 150 150"><defs><style>.cls-1{fill:#ed5943;}.cls-2{fill:none;stroke:#fff;stroke-linecap:round;stroke-linejoin:round;stroke-width:3px;}.cls-3{fill:#fff;}</style></defs><title>Artboard 2 copy 21</title><circle class="cls-1" cx="75" cy="75" r="75"/><polyline class="cls-2" points="99.17 73.42 115.67 73.42 115.67 103.33 34.33 103.33 34.33 73.42 51.74 73.42"/><path class="cls-3" d="M57.27,81.76c.31-15,4.1-27.22,14.43-37.55L90.11,58.14c-8.63,8.63-9,18.11-9,23.67a2,2,0,0,1-2,2H59.27A2,2,0,0,1,57.27,81.76Z"/><path class="cls-3" d="M92.57,35.07l-24.9,3.24a1.86,1.86,0,0,0-.91,3.32l27.85,21.7a1.86,1.86,0,0,0,3-1.69l-3-24.94A1.86,1.86,0,0,0,92.57,35.07Z"/></svg>