<svg xmlns="http://www.w3.org/2000/svg" viewBox="0 0 1313.6 373.16"><defs><style>.cls-1{isolation:isolate;}.cls-2{fill:#42607b;}.cls-24,.cls-3{fill:#0d3557;}.cls-4{fill:#353535;}.cls-12,.cls-13,.cls-16,.cls-17,.cls-20,.cls-21,.cls-22,.cls-23,.cls-25,.cls-28,.cls-32,.cls-33,.cls-34,.cls-35,.cls-38,.cls-5{fill:none;}.cls-21,.cls-22,.cls-23,.cls-5,.cls-6,.cls-7,.cls-8{stroke:#ed5943;}.cls-12,.cls-13,.cls-16,.cls-17,.cls-20,.cls-21,.cls-22,.cls-23,.cls-25,.cls-28,.cls-32,.cls-33,.cls-34,.cls-35,.cls-38,.cls-5,.cls-6,.cls-7,.cls-8{stroke-miterlimit:10;}.cls-5{stroke-width:1.81px;}.cls-31,.cls-6,.cls-7,.cls-8{fill:#231f20;}.cls-6{stroke-width:3.02px;}.cls-7{stroke-width:2.9px;}.cls-8{stroke-width:3.24px;}.cls-9{fill:#afd1d2;}.cls-10,.cls-26{fill:#fff;}.cls-11{fill:#78bbc0;}.cls-12,.cls-13,.cls-16,.cls-35{stroke:#42607b;}.cls-12{stroke-width:4.59px;}.cls-13,.cls-16{stroke-width:1.8px;}.cls-14{fill:#bababa;}.cls-15{fill:#dcdbdb;}.cls-16,.cls-17,.cls-23,.cls-28,.cls-32,.cls-34,.cls-35,.cls-38{stroke-linecap:round;}.cls-17,.cls-34{stroke:#afd1d2;}.cls-17{stroke-width:10.67px;}.cls-18{fill:#ed5943;}.cls-19{fill:#f3a11e;}.cls-20{stroke:#0d3557;stroke-width:5.56px;}.cls-21{stroke-width:2.76px;}.cls-22{stroke-width:2.49px;}.cls-23{stroke-width:1.49px;}.cls-24{font-size:38px;}.cls-24,.cls-26{font-family:Oswald-Regular, Oswald;}.cls-25{stroke:#fff;stroke-width:2.44px;}.cls-26{font-size:24.11px;}.cls-27{fill:#d78b28;}.cls-28{stroke:#bababa;stroke-width:9.03px;}.cls-29{fill:#474748;}.cls-30{fill:#f8bb65;}.cls-32{stroke:#353535;stroke-width:19.04px;}.cls-33{stroke:#f3a11e;stroke-width:6.15px;}.cls-34{stroke-width:8.61px;}.cls-35{stroke-width:4.92px;}.cls-36{fill:#1e1e1e;}.cls-37{fill:#7b7b7b;}.cls-38{stroke:#8c8c8c;stroke-width:0.85px;}.cls-39{fill:#fbe9d0;mix-blend-mode:multiply;}</style></defs><title>Artboard 28</title><g class="cls-1"><g id="Layer_1" data-name="Layer 1"><rect class="cls-2" x="415.3" y="100.34" width="132.82" height="19.28"/><rect class="cls-2" x="408.47" y="68.78" width="132.82" height="19.28" transform="translate(-6.28 90.4) rotate(-10.8)"/><path class="cls-3" d="M397.9,119.62H544.17a0,0,0,0,1,0,0v81a13.8,13.8,0,0,1-13.8,13.8H411.71a13.8,13.8,0,0,1-13.8-13.8v-81A0,0,0,0,1,397.9,119.62Z"/><polygon class="cls-4" points="395.07 119.62 424.65 119.62 424.65 112.15 409.86 81.06 395.07 81.06 395.07 119.62"/><line class="cls-5" x1="407.84" y1="138.74" x2="533.62" y2="138.74"/><line class="cls-5" x1="407.84" y1="163.46" x2="533.62" y2="163.46"/><line class="cls-5" x1="407.84" y1="198.69" x2="533.62" y2="198.69"/><line class="cls-5" x1="446.23" y1="138.74" x2="446.23" y2="163.46"/><line class="cls-5" x1="492.27" y1="138.74" x2="492.27" y2="163.46"/><line class="cls-6" x1="416.04" y1="144.15" x2="436.12" y2="144.15"/><line class="cls-6" x1="459.21" y1="144.15" x2="479.29" y2="144.15"/><line class="cls-6" x1="503.09" y1="144.15" x2="523.17" y2="144.15"/><line class="cls-6" x1="407.54" y1="191.27" x2="441.86" y2="191.27"/><line class="cls-7" x1="407.54" y1="205.57" x2="426.08" y2="205.57"/><line class="cls-7" x1="513.89" y1="205.57" x2="532.44" y2="205.57"/><line class="cls-7" x1="484.72" y1="205.57" x2="503.27" y2="205.57"/><line class="cls-6" x1="407.49" y1="182.02" x2="441.81" y2="182.02"/><line class="cls-8" x1="408.39" y1="131.88" x2="431.55" y2="131.88"/><polygon class="cls-9" points="444.15 119.62 433.45 119.63 444.59 100.34 455.28 100.34 444.15 119.62"/><polygon class="cls-9" points="465.38 119.62 454.68 119.63 465.82 100.34 476.51 100.34 465.38 119.62"/><polygon class="cls-9" points="486.61 119.62 475.91 119.63 487.05 100.34 497.74 100.34 486.61 119.62"/><polygon class="cls-9" points="507.84 119.62 497.14 119.63 508.28 100.34 518.97 100.34 507.84 119.62"/><polygon class="cls-9" points="529.07 119.62 518.38 119.63 529.51 100.34 540.2 100.34 529.07 119.62"/><polygon class="cls-9" points="440.66 75.13 430.16 77.17 444.79 93.97 455.28 91.92 440.66 75.13"/><polygon class="cls-9" points="462.09 71.1 451.59 73.14 466.22 89.94 476.71 87.89 462.09 71.1"/><polygon class="cls-9" points="483.52 67.08 473.02 69.12 487.65 85.92 498.14 83.87 483.52 67.08"/><polygon class="cls-9" points="504.95 63.05 494.45 65.09 509.08 81.89 519.58 79.84 504.95 63.05"/><polygon class="cls-9" points="526.39 59.03 515.89 61.07 530.52 77.87 541.01 75.82 526.39 59.03"/><circle class="cls-10" cx="402.35" cy="110.89" r="2.87"/><circle class="cls-10" cx="402.35" cy="93.97" r="2.87"/><rect class="cls-11" x="416.13" y="253.13" width="161.16" height="87.56" rx="17.36" ry="17.36"/><circle class="cls-2" cx="431.8" cy="265.59" r="6.2"/><circle class="cls-10" cx="510.78" cy="297.2" r="26.11"/><circle class="cls-12" cx="510.78" cy="297.2" r="38.27"/><circle class="cls-13" cx="510.78" cy="297.2" r="30.01"/><circle class="cls-14" cx="510.78" cy="297.2" r="17.21"/><circle class="cls-15" cx="510.78" cy="297.2" r="9.97"/><circle class="cls-10" cx="514.58" cy="295.4" r="3.8"/><circle class="cls-10" cx="506.97" cy="302" r="2.8"/><rect class="cls-2" x="549.05" y="259.38" width="24.21" height="11.71" rx="3.02" ry="3.02"/><path class="cls-11" d="M531.32,238.38H491.15a4.64,4.64,0,0,0-4.17,3.13l-4.69,11.62h57l-3.62-11.21A4.73,4.73,0,0,0,531.32,238.38Z"/><line class="cls-16" x1="419.85" y1="284.64" x2="474.31" y2="284.64"/><line class="cls-16" x1="548.45" y1="284.64" x2="572.13" y2="284.64"/><line class="cls-16" x1="419.85" y1="315.56" x2="476.57" y2="315.56"/><line class="cls-16" x1="545.15" y1="315.56" x2="572.13" y2="315.56"/><line class="cls-17" x1="850.32" y1="316.8" x2="679.65" y2="316.8"/><circle class="cls-9" cx="850.32" cy="256.91" r="65.34"/><path class="cls-2" d="M850.32,153.35A103.56,103.56,0,1,0,953.88,256.91,103.56,103.56,0,0,0,850.32,153.35Zm54.55,34.6,14.41,14.41c4.71,4.71,5.08,11.48.77,14.13l-36.86,22.66c-3.35,2.06-8.46.9-12.13-2.77s-4.82-8.73-2.79-12.09l22.45-37.07C893.35,182.87,900.14,183.22,904.87,187.95Zm-64.74-18.38h20.38c6.66,0,11.71,4.52,10.53,9.45L861,221.1c-.91,3.83-5.35,6.62-10.53,6.62s-9.59-2.77-10.52-6.58l-10.34-42.09C828.4,174.12,833.44,169.57,840.13,169.57Zm-58.77,32.78,14.41-14.41c4.71-4.71,11.48-5.08,14.13-.77L832.56,224c2.06,3.35.9,8.46-2.77,12.13S821.06,241,817.7,239L780.63,216.5C776.28,213.87,776.63,207.08,781.36,202.35Zm-8.89,75.26c-4.94,1.21-9.49-3.84-9.49-10.52V246.72c0-6.66,4.52-11.71,9.45-10.53l42.09,10c3.83.91,6.62,5.35,6.62,10.53s-2.77,9.59-6.58,10.52Zm23.3,48.25-14.41-14.41c-4.71-4.71-5.08-11.48-.77-14.13l36.86-22.66c3.35-2.06,8.46-.9,12.13,2.77s4.82,8.73,2.79,12.09L809.92,326.6C807.28,330.95,800.49,330.6,795.77,325.87Zm64.74,18.38H840.13c-6.66,0-11.71-4.52-10.53-9.45l10-42.09c.91-3.83,5.35-6.62,10.53-6.62h0c5.16,0,9.59,2.77,10.52,6.58L871,334.75C872.24,339.69,867.19,344.24,860.51,344.24Zm58.77-32.78-14.41,14.41c-4.71,4.71-11.48,5.08-14.13.77l-22.66-36.86c-2.06-3.35-.9-8.46,2.77-12.13s8.73-4.82,12.09-2.79L920,297.31C924.36,299.94,924,306.73,919.28,311.46Zm8.93-33.83-42.09-10c-3.83-.91-6.62-5.35-6.62-10.53s2.77-9.59,6.58-10.52l42.09-10.34c4.94-1.21,9.49,3.84,9.49,10.52V267.1C937.66,273.76,933.13,278.8,928.21,277.63Z"/><circle class="cls-18" cx="850.32" cy="256.91" r="7.26"/><circle class="cls-19" cx="850.32" cy="243.13" r="3.11"/><circle class="cls-19" cx="838.39" cy="250.02" r="3.11" transform="translate(202.67 851.07) rotate(-60)"/><circle class="cls-19" cx="838.39" cy="263.8" r="3.11" transform="translate(-19.58 454.54) rotate(-30)"/><circle class="cls-19" cx="850.32" cy="270.68" r="3.11"/><circle class="cls-19" cx="862.25" cy="263.8" r="3.11" transform="translate(202.67 878.63) rotate(-60)"/><circle class="cls-19" cx="862.25" cy="250.02" r="3.11" transform="translate(-9.49 464.62) rotate(-30)"/><line class="cls-20" x1="243.73" y1="15.44" x2="376.88" y2="15.44"/><line class="cls-20" x1="243.73" y1="28.24" x2="376.88" y2="28.24"/><line class="cls-20" x1="243.73" y1="41.03" x2="376.88" y2="41.03"/><line class="cls-20" x1="243.73" y1="53.83" x2="376.88" y2="53.83"/><line class="cls-20" x1="243.73" y1="66.63" x2="376.88" y2="66.63"/><line class="cls-20" x1="243.73" y1="79.42" x2="376.88" y2="79.42"/><line class="cls-20" x1="243.73" y1="92.22" x2="376.88" y2="92.22"/><rect class="cls-3" x="254.18" y="6.76" width="111.5" height="93.72"/><rect class="cls-15" x="259.56" y="11.91" width="99.85" height="83.42" rx="17.37" ry="17.37"/><circle class="cls-21" cx="309.48" cy="53.83" r="33.54"/><circle class="cls-22" cx="309.48" cy="53.83" r="24.85"/><line class="cls-23" x1="309.48" y1="11.91" x2="309.48" y2="95.33"/><line class="cls-23" x1="357.38" y1="53.83" x2="261.59" y2="53.83"/><text class="cls-24" transform="translate(300.3 69.49)">3</text><line class="cls-20" x1="241.98" y1="6.76" x2="241.98" y2="100.48"/><line class="cls-20" x1="377.38" y1="6.76" x2="377.38" y2="100.48"/><path class="cls-18" d="M770.79,35.27v-.16H598.72v.16a25,25,0,0,1-25,25h0v51.86h.45a24.56,24.56,0,0,1,24.56,24.56H770.79a24.56,24.56,0,0,1,24.56-24.56h.45V60.29h0A25,25,0,0,1,770.79,35.27Z"/><rect class="cls-25" x="608.89" y="44.22" width="154.17" height="80.95" rx="1.74" ry="1.74"/><line class="cls-25" x1="744.76" y1="44.22" x2="744.76" y2="125.17"/><line class="cls-25" x1="627.2" y1="44.22" x2="627.2" y2="125.17"/><text class="cls-26" transform="translate(637.04 93.28)">ADMIT ONE</text><polygon class="cls-19" points="684.76 49.11 687.67 55.02 694.2 55.97 689.48 60.57 690.59 67.06 684.76 64 678.92 67.06 680.04 60.57 675.32 55.97 681.84 55.02 684.76 49.11"/><polygon class="cls-19" points="661.99 49.11 664.91 55.02 671.43 55.97 666.71 60.57 667.82 67.06 661.99 64 656.16 67.06 657.27 60.57 652.55 55.97 659.07 55.02 661.99 49.11"/><polygon class="cls-19" points="640.51 49.11 643.43 55.02 649.95 55.97 645.23 60.57 646.35 67.06 640.51 64 634.68 67.06 635.79 60.57 631.08 55.97 637.6 55.02 640.51 49.11"/><polygon class="cls-19" points="730.61 49.11 733.52 55.02 740.04 55.97 735.33 60.57 736.44 67.06 730.61 64 724.77 67.06 725.89 60.57 721.17 55.97 727.69 55.02 730.61 49.11"/><polygon class="cls-19" points="707.91 49.11 710.83 55.02 717.35 55.97 712.63 60.57 713.74 67.06 707.91 64 702.08 67.06 703.19 60.57 698.47 55.97 704.99 55.02 707.91 49.11"/><polygon class="cls-19" points="684.76 98.76 687.67 104.67 694.2 105.62 689.48 110.22 690.59 116.72 684.76 113.65 678.92 116.72 680.04 110.22 675.32 105.62 681.84 104.67 684.76 98.76"/><polygon class="cls-19" points="661.99 98.76 664.91 104.67 671.43 105.62 666.71 110.22 667.82 116.72 661.99 113.65 656.16 116.72 657.27 110.22 652.55 105.62 659.07 104.67 661.99 98.76"/><polygon class="cls-19" points="640.51 98.76 643.43 104.67 649.95 105.62 645.23 110.22 646.35 116.72 640.51 113.65 634.68 116.72 635.79 110.22 631.08 105.62 637.6 104.67 640.51 98.76"/><polygon class="cls-19" points="730.61 98.76 733.52 104.67 740.04 105.62 735.33 110.22 736.44 116.72 730.61 113.65 724.77 116.72 725.89 110.22 721.17 105.62 727.69 104.67 730.61 98.76"/><polygon class="cls-19" points="707.91 98.76 710.83 104.67 717.35 105.62 712.63 110.22 713.74 116.72 707.91 113.65 702.08 116.72 703.19 110.22 698.47 105.62 704.99 104.67 707.91 98.76"/><path class="cls-27" d="M1086.31,252.07,1079.18,211a12,12,0,0,0-13.92-9.8l-19.12,3.32,1,5.92,19.26-3.34a5.76,5.76,0,0,1,6.66,4.69l7.22,41.6a5.76,5.76,0,0,1-4.69,6.66l-19.26,3.34,1,5.92,19.12-3.32A12,12,0,0,0,1086.31,252.07Z"/><polygon class="cls-19" points="1073.36 336.49 973.68 336.49 1004.35 170.39 1043.07 170.39 1073.36 336.49"/><rect class="cls-27" x="968.88" y="334.49" width="109.27" height="13.8" rx="2.11" ry="2.11"/><rect class="cls-27" x="1000.9" y="161.95" width="45.24" height="8.44" rx="2.18" ry="2.18"/><polygon class="cls-3" points="1003.41 170.39 1043.63 170.39 1048.66 201.02 998.69 201.02 1003.41 170.39"/><polyline class="cls-28" points="21.38 323.9 78.56 273.23 133.49 323.9"/><path class="cls-29" d="M59.66,60.94V91.2L8.1,122.45c-2.29,1.39-4.69-1.55-4.69-5.74V35.44c0-4.2,2.4-7.13,4.69-5.74Z"/><path class="cls-29" d="M98.08,91.2V60.94l51.56-31.25c2.29-1.39,4.69,1.55,4.69,5.74v81.27c0,4.2-2.4,7.13-4.69,5.74Z"/><path class="cls-14" d="M93.39,56.25H63.13L31.88,4.69C30.49,2.4,33.43,0,37.62,0H118.9c4.2,0,7.13,2.4,5.74,4.69Z"/><path class="cls-14" d="M63.13,97.81H93.39l31.25,51.56c1.39,2.29-1.55,4.69-5.74,4.69H37.62c-4.2,0-7.13-2.4-5.74-4.69Z"/><circle class="cls-27" cx="78.26" cy="76.07" r="27.67"/><circle class="cls-30" cx="78.26" cy="76.07" r="19.82"/><line class="cls-28" x1="78.26" y1="154.06" x2="78.26" y2="323.9"/><rect class="cls-31" x="71.27" y="230.51" width="14.57" height="36.15" rx="1.15" ry="1.15"/><line class="cls-32" x1="1127.87" y1="205.65" x2="1252.26" y2="349.07"/><line class="cls-32" x1="1252.26" y1="205.65" x2="1127.87" y2="349.07"/><line class="cls-32" x1="1127.87" y1="46.74" x2="1127.87" y2="190.89"/><line class="cls-32" x1="1252.26" y1="46.74" x2="1252.26" y2="190.89"/><rect class="cls-18" x="1094.88" y="59.7" width="183.11" height="83.5" rx="11.97" ry="11.97"/><rect class="cls-18" x="1094.88" y="184.18" width="183.11" height="32.72" rx="11.97" ry="11.97"/><polygon class="cls-19" points="1186.43 70.83 1194.03 94.22 1218.63 94.22 1198.73 108.68 1206.33 132.07 1186.43 117.61 1166.53 132.07 1174.13 108.68 1154.23 94.22 1178.83 94.22 1186.43 70.83"/><line class="cls-33" x1="315.66" y1="135.46" x2="204.26" y2="135.46"/><path class="cls-11" d="M388.11,289.66l-39-8.48V239.1l39-8.48a5.39,5.39,0,0,1,6.53,5.26V284.4A5.39,5.39,0,0,1,388.11,289.66Z"/><rect class="cls-2" x="168.33" y="205.1" width="183.26" height="105.1" rx="12.9" ry="12.9"/><circle class="cls-19" cx="207.36" cy="160.2" r="28.13"/><path class="cls-9" d="M207.36,115.61a44.59,44.59,0,1,0,44.59,44.59A44.59,44.59,0,0,0,207.36,115.61Zm23.49,14.9,6.2,6.2c2,2,2.19,4.94.33,6.08l-15.87,9.76c-1.44.89-3.64.39-5.22-1.19s-2.08-3.76-1.2-5.21l9.67-16C225.89,128.32,228.81,128.47,230.85,130.51ZM203,122.6h8.77c2.87,0,5,1.95,4.53,4.07L212,144.79c-.39,1.65-2.3,2.85-4.53,2.85s-4.13-1.19-4.53-2.83l-4.45-18.12C197.92,124.56,200.09,122.6,203,122.6Zm-25.3,14.12,6.2-6.2c2-2,4.94-2.19,6.08-.33L199.71,146c.89,1.44.39,3.64-1.19,5.22s-3.76,2.08-5.21,1.2l-16-9.67C175.48,141.67,175.63,138.75,177.67,136.71Zm-3.83,32.4c-2.13.52-4.09-1.65-4.09-4.53v-8.77c0-2.87,1.95-5,4.07-4.53l18.12,4.32c1.65.39,2.85,2.3,2.85,4.53s-1.19,4.13-2.83,4.53Zm10,20.77-6.2-6.2c-2-2-2.19-4.94-.33-6.08l15.87-9.76c1.44-.89,3.64-.39,5.22,1.19s2.08,3.76,1.2,5.21l-9.67,16C188.83,192.08,185.91,191.93,183.87,189.89Zm27.87,7.91H203c-2.87,0-5-1.95-4.53-4.07l4.32-18.12c.39-1.65,2.3-2.85,4.53-2.85h0c2.22,0,4.13,1.19,4.53,2.83l4.45,18.12C216.8,195.84,214.62,197.8,211.75,197.8Zm25.3-14.12-6.2,6.2c-2,2-4.94,2.19-6.08.33L215,174.35c-.89-1.44-.39-3.64,1.19-5.22s3.76-2.08,5.21-1.2l16,9.67C239.24,178.73,239.09,181.65,237.05,183.69Zm3.84-14.57-18.12-4.32c-1.65-.39-2.85-2.3-2.85-4.53s1.19-4.13,2.83-4.53l18.12-4.45c2.13-.52,4.09,1.65,4.09,4.53v8.77C245,167.46,243,169.63,240.89,169.12Z"/><circle class="cls-18" cx="207.36" cy="160.2" r="3.13"/><circle class="cls-3" cx="207.36" cy="154.27" r="1.34"/><circle class="cls-3" cx="202.22" cy="157.23" r="1.34" transform="translate(-35.06 253.75) rotate(-60)"/><circle class="cls-3" cx="202.22" cy="163.17" r="1.34" transform="translate(-54.49 122.97) rotate(-30)"/><circle class="cls-3" cx="207.36" cy="166.13" r="1.34"/><circle class="cls-3" cx="212.5" cy="163.17" r="1.34" transform="translate(-35.06 265.61) rotate(-60)"/><circle class="cls-3" cx="212.5" cy="157.23" r="1.34" transform="translate(-50.15 127.31) rotate(-30)"/><circle class="cls-19" cx="311.02" cy="160.2" r="28.13"/><path class="cls-9" d="M311,115.61a44.59,44.59,0,1,0,44.59,44.59A44.59,44.59,0,0,0,311,115.61Zm23.49,14.9,6.2,6.2c2,2,2.19,4.94.33,6.08l-15.87,9.76c-1.44.89-3.64.39-5.22-1.19s-2.08-3.76-1.2-5.21l9.67-16C329.55,128.32,332.47,128.47,334.51,130.51Zm-27.87-7.91h8.77c2.87,0,5,1.95,4.53,4.07l-4.32,18.12c-.39,1.65-2.3,2.85-4.53,2.85s-4.13-1.19-4.53-2.83l-4.45-18.12C301.58,124.56,303.75,122.6,306.63,122.6Zm-25.3,14.12,6.2-6.2c2-2,4.94-2.19,6.08-.33L303.37,146c.89,1.44.39,3.64-1.19,5.22s-3.76,2.08-5.21,1.2l-16-9.67C279.14,141.67,279.29,138.75,281.33,136.71Zm-3.83,32.4c-2.13.52-4.09-1.65-4.09-4.53v-8.77c0-2.87,1.95-5,4.07-4.53l18.12,4.32c1.65.39,2.85,2.3,2.85,4.53s-1.19,4.13-2.83,4.53Zm10,20.77-6.2-6.2c-2-2-2.19-4.94-.33-6.08l15.87-9.76c1.44-.89,3.64-.39,5.22,1.19s2.08,3.76,1.2,5.21l-9.67,16C292.49,192.08,289.57,191.93,287.53,189.89Zm27.87,7.91h-8.77c-2.87,0-5-1.95-4.53-4.07l4.32-18.12c.39-1.65,2.3-2.85,4.53-2.85h0c2.22,0,4.13,1.19,4.53,2.83l4.45,18.12C320.46,195.84,318.29,197.8,315.41,197.8Zm25.3-14.12-6.2,6.2c-2,2-4.94,2.19-6.08.33l-9.76-15.87c-.89-1.44-.39-3.64,1.19-5.22s3.76-2.08,5.21-1.2l16,9.67C342.9,178.73,342.75,181.65,340.71,183.69Zm3.84-14.57-18.12-4.32c-1.65-.39-2.85-2.3-2.85-4.53s1.19-4.13,2.83-4.53l18.12-4.45c2.13-.52,4.09,1.65,4.09,4.53v8.77C348.62,167.46,346.68,169.63,344.56,169.12Z"/><circle class="cls-18" cx="311.02" cy="160.2" r="3.13"/><circle class="cls-3" cx="311.02" cy="154.27" r="1.34"/><circle class="cls-3" cx="305.88" cy="157.23" r="1.34" transform="matrix(0.5, -0.87, 0.87, 0.5, 16.77, 343.52)"/><circle class="cls-3" cx="305.88" cy="163.17" r="1.34" transform="translate(-40.6 174.8) rotate(-30)"/><circle class="cls-3" cx="311.02" cy="166.13" r="1.34"/><circle class="cls-3" cx="316.16" cy="163.17" r="1.34" transform="matrix(0.5, -0.87, 0.87, 0.5, 16.77, 355.38)"/><circle class="cls-3" cx="316.16" cy="157.23" r="1.34" transform="translate(-36.26 179.14) rotate(-30)"/><rect class="cls-18" x="217.53" y="244.46" width="105.16" height="31.36" rx="4.08" ry="4.08"/><line class="cls-34" x1="392.59" y1="228.35" x2="392.59" y2="291.93"/><rect class="cls-9" x="217.53" y="225.19" width="105.16" height="11.89" rx="1.96" ry="1.96"/><circle class="cls-27" cx="185.55" cy="295.5" r="4.3"/><circle class="cls-27" cx="199.26" cy="295.5" r="3.04"/><circle class="cls-27" cx="212.5" cy="295.5" r="3.04"/><path class="cls-11" d="M161.83,243.23h6.5a0,0,0,0,1,0,0v31.06a0,0,0,0,1,0,0h-5.18a3.73,3.73,0,0,1-3.73-3.73v-24.9A2.42,2.42,0,0,1,161.83,243.23Z"/><rect class="cls-2" x="146.78" y="252.34" width="12.64" height="12.83"/><line class="cls-35" x1="146.78" y1="244.46" x2="146.78" y2="271.82"/><path class="cls-36" d="M851.67,4.23h162.19a6.41,6.41,0,0,1,6.41,6.41V122.57a0,0,0,0,1,0,0h-175a0,0,0,0,1,0,0V10.64A6.41,6.41,0,0,1,851.67,4.23Z"/><rect class="cls-10" x="855.27" y="14.17" width="155" height="98.46"/><rect class="cls-14" x="821.4" y="122.57" width="222.71" height="7.28"/><path class="cls-37" d="M1027.83,134.38H834.29a16.11,16.11,0,0,1-7.2-1.68l-5.67-2.84h222.71l-10.17,3.5A18.86,18.86,0,0,1,1027.83,134.38Z"/><line class="cls-38" x1="916.34" y1="126.72" x2="949.18" y2="126.72"/><path class="cls-10" d="M912.84,122.57h39.85a0,0,0,0,1,0,0v0a4.12,4.12,0,0,1-4.12,4.12H917a4.12,4.12,0,0,1-4.12-4.12v0A0,0,0,0,1,912.84,122.57Z"/><rect class="cls-27" x="623.8" y="166.69" width="95.25" height="122.94" rx="6.15" ry="6.15"/><rect class="cls-10" x="633.24" y="177.18" width="75.36" height="103.89"/><path class="cls-3" d="M700.68,174.38a7.15,7.15,0,0,0-7-5.7h-2.46a8.71,8.71,0,0,1-8.71-8.71h-7.68a6.24,6.24,0,1,0-6.82,0h-7.68a8.71,8.71,0,0,1-8.71,8.71h-2.86a7.15,7.15,0,0,0-7.06,6l-1.5,5h62.42Zm-29.25-16.95a3,3,0,1,1,3-3A3,3,0,0,1,671.43,157.43Z"/><polyline class="cls-39" points="1023.52 170.39 1043.07 170.39 1073.36 336.49 1023.52 336.49"/></g></g></svg>