<svg id="Layer_1" data-name="Layer 1" xmlns="http://www.w3.org/2000/svg" viewBox="0 0 151.2 151.2"><defs><style>.cls-1{fill:#ed5943;}.cls-2{fill:#f3a11e;}.cls-3{fill:#42607b;}.cls-4{fill:#0d3557;}.cls-5{fill:#fff;}</style></defs><title>Artboard 2 copy 30</title><circle class="cls-1" cx="75.6" cy="75.6" r="75.6"/><path class="cls-2" d="M79.8,26.79a5.2,5.2,0,0,0-8.42,0c-4.81,6.62-12,17.85-12,25.62,0,11.65,2.76,55.78,2.76,55.78h27s2.76-44.13,2.76-55.78C91.83,44.64,84.61,33.41,79.8,26.79Z"/><circle class="cls-3" cx="75.59" cy="69.61" r="7.89"/><path class="cls-4" d="M71.38,26.79c-3.56,4.9-8.44,12.33-10.74,19H90.53c-2.3-6.68-7.17-14.1-10.74-19A5.2,5.2,0,0,0,71.38,26.79Z"/><circle class="cls-4" cx="75.59" cy="69.61" r="6.15"/><circle class="cls-5" cx="74.44" cy="68.01" r="1.59"/><path class="cls-4" d="M75,91.4l-5.44,12.83a.67.67,0,0,0,0,.43L74.94,126a.67.67,0,0,0,1.31,0l5.44-21.38a.67.67,0,0,0,0-.43L76.21,91.4A.67.67,0,0,0,75,91.4Z"/><path class="cls-4" d="M62.1,108.19l-6,17.64a1,1,0,0,1-1.85,0L48.64,108.6a1,1,0,0,1,.08-.78L60.65,86.44Z"/><path class="cls-4" d="M89.1,108.19l6,17.64a1,1,0,0,0,1.85,0l5.62-17.22a1,1,0,0,0-.08-.78L90.55,86.44Z"/></svg>