<svg id="Layer_1" data-name="Layer 1" xmlns="http://www.w3.org/2000/svg" viewBox="0 0 1357.53 538.77"><defs><style>.cls-1{fill:#42607b;}.cls-2,.cls-23{fill:#0d3557;}.cls-3{fill:#353535;}.cls-11,.cls-12,.cls-15,.cls-16,.cls-19,.cls-20,.cls-21,.cls-22,.cls-24,.cls-27,.cls-31,.cls-32,.cls-33,.cls-34,.cls-37,.cls-4{fill:none;}.cls-20,.cls-21,.cls-22,.cls-4,.cls-5,.cls-6,.cls-7{stroke:#ed5943;}.cls-11,.cls-12,.cls-15,.cls-16,.cls-19,.cls-20,.cls-21,.cls-22,.cls-24,.cls-27,.cls-31,.cls-32,.cls-33,.cls-34,.cls-37,.cls-4,.cls-5,.cls-6,.cls-7{stroke-miterlimit:10;}.cls-4{stroke-width:1.81px;}.cls-30,.cls-5,.cls-6,.cls-7{fill:#231f20;}.cls-5{stroke-width:3.02px;}.cls-6{stroke-width:2.9px;}.cls-7{stroke-width:3.24px;}.cls-8{fill:#afd1d2;}.cls-25,.cls-9{fill:#fff;}.cls-10{fill:#78bbc0;}.cls-11,.cls-12,.cls-15,.cls-34{stroke:#42607b;}.cls-11{stroke-width:4.59px;}.cls-12,.cls-15{stroke-width:1.8px;}.cls-13{fill:#bababa;}.cls-14{fill:#dcdbdb;}.cls-15,.cls-16,.cls-22,.cls-27,.cls-31,.cls-33,.cls-34,.cls-37{stroke-linecap:round;}.cls-16,.cls-33{stroke:#afd1d2;}.cls-16{stroke-width:10.67px;}.cls-17{fill:#ed5943;}.cls-18{fill:#f3a11e;}.cls-19{stroke:#0d3557;stroke-width:5.56px;}.cls-20{stroke-width:2.76px;}.cls-21{stroke-width:2.49px;}.cls-22{stroke-width:1.49px;}.cls-23{font-size:38px;}.cls-23,.cls-25{font-family:Oswald-Regular, Oswald;}.cls-24{stroke:#fff;stroke-width:2.44px;}.cls-25{font-size:24.11px;}.cls-26{fill:#d78b28;}.cls-27{stroke:#bababa;stroke-width:13.2px;}.cls-28{fill:#474748;}.cls-29{fill:#f8bb65;}.cls-31{stroke:#353535;stroke-width:19.04px;}.cls-32{stroke:#f3a11e;stroke-width:6.15px;}.cls-33{stroke-width:8.61px;}.cls-34{stroke-width:4.92px;}.cls-35{fill:#1e1e1e;}.cls-36{fill:#7b7b7b;}.cls-37{stroke:#8c8c8c;stroke-width:0.85px;}</style></defs><title>Artboard 28</title><rect class="cls-1" x="459.22" y="265.96" width="132.82" height="19.28"/><rect class="cls-1" x="452.4" y="234.4" width="132.82" height="19.28" transform="translate(-36.55 101.56) rotate(-10.8)"/><path class="cls-2" d="M441.83,285.24H588.1a0,0,0,0,1,0,0v81A13.8,13.8,0,0,1,574.3,380H455.63a13.8,13.8,0,0,1-13.8-13.8v-81A0,0,0,0,1,441.83,285.24Z"/><polygon class="cls-3" points="439 285.24 468.58 285.24 468.58 277.77 453.79 246.68 439 246.68 439 285.24"/><line class="cls-4" x1="451.77" y1="304.36" x2="577.55" y2="304.36"/><line class="cls-4" x1="451.77" y1="329.08" x2="577.55" y2="329.08"/><line class="cls-4" x1="451.77" y1="364.3" x2="577.55" y2="364.3"/><line class="cls-4" x1="490.15" y1="304.36" x2="490.15" y2="329.08"/><line class="cls-4" x1="536.19" y1="304.36" x2="536.19" y2="329.08"/><line class="cls-5" x1="459.97" y1="309.76" x2="480.05" y2="309.76"/><line class="cls-5" x1="503.13" y1="309.76" x2="523.21" y2="309.76"/><line class="cls-5" x1="547.01" y1="309.76" x2="567.09" y2="309.76"/><line class="cls-5" x1="451.46" y1="356.89" x2="485.78" y2="356.89"/><line class="cls-6" x1="451.46" y1="371.18" x2="470.01" y2="371.18"/><line class="cls-6" x1="557.82" y1="371.18" x2="576.37" y2="371.18"/><line class="cls-6" x1="528.65" y1="371.18" x2="547.2" y2="371.18"/><line class="cls-5" x1="451.42" y1="347.64" x2="485.74" y2="347.64"/><line class="cls-7" x1="452.32" y1="297.5" x2="475.48" y2="297.5"/><polygon class="cls-8" points="488.07 285.24 477.38 285.25 488.52 265.96 499.21 265.96 488.07 285.24"/><polygon class="cls-8" points="509.31 285.24 498.61 285.25 509.75 265.96 520.44 265.96 509.31 285.24"/><polygon class="cls-8" points="530.54 285.24 519.84 285.25 530.98 265.96 541.67 265.96 530.54 285.24"/><polygon class="cls-8" points="551.77 285.24 541.07 285.25 552.21 265.96 562.9 265.96 551.77 285.24"/><polygon class="cls-8" points="573 285.24 562.3 285.25 573.44 265.96 584.13 265.96 573 285.24"/><polygon class="cls-8" points="484.58 240.75 474.09 242.78 488.72 259.59 499.21 257.54 484.58 240.75"/><polygon class="cls-8" points="506.02 236.72 495.52 238.76 510.15 255.56 520.64 253.51 506.02 236.72"/><polygon class="cls-8" points="527.45 232.7 516.95 234.74 531.58 251.54 542.07 249.49 527.45 232.7"/><polygon class="cls-8" points="548.88 228.67 538.38 230.71 553.01 247.51 563.5 245.46 548.88 228.67"/><polygon class="cls-8" points="570.31 224.65 559.81 226.69 574.44 243.49 584.93 241.44 570.31 224.65"/><circle class="cls-9" cx="446.28" cy="276.51" r="2.87"/><circle class="cls-9" cx="446.28" cy="259.59" r="2.87"/><rect class="cls-10" x="460.06" y="418.75" width="161.16" height="87.56" rx="17.36" ry="17.36"/><circle class="cls-1" cx="475.73" cy="431.2" r="6.2"/><circle class="cls-9" cx="554.7" cy="462.82" r="26.11"/><circle class="cls-11" cx="554.7" cy="462.82" r="38.27"/><circle class="cls-12" cx="554.7" cy="462.82" r="30.01"/><circle class="cls-13" cx="554.7" cy="462.82" r="17.21"/><circle class="cls-14" cx="554.7" cy="462.82" r="9.97"/><circle class="cls-9" cx="558.5" cy="461.02" r="3.8"/><circle class="cls-9" cx="550.9" cy="467.62" r="2.8"/><rect class="cls-1" x="592.97" y="425" width="24.21" height="11.71" rx="3.02" ry="3.02"/><path class="cls-10" d="M575.25,404H535.08a4.64,4.64,0,0,0-4.17,3.13l-4.69,11.62h57l-3.62-11.21A4.73,4.73,0,0,0,575.25,404Z"/><line class="cls-15" x1="463.77" y1="450.26" x2="518.24" y2="450.26"/><line class="cls-15" x1="592.37" y1="450.26" x2="616.06" y2="450.26"/><line class="cls-15" x1="463.77" y1="481.18" x2="520.5" y2="481.18"/><line class="cls-15" x1="589.07" y1="481.18" x2="616.06" y2="481.18"/><line class="cls-16" x1="894.24" y1="482.42" x2="723.57" y2="482.42"/><circle class="cls-8" cx="894.24" cy="422.52" r="65.34"/><path class="cls-1" d="M894.24,319A103.56,103.56,0,1,0,997.8,422.52,103.56,103.56,0,0,0,894.24,319Zm54.55,34.6L963.21,368c4.71,4.71,5.08,11.48.77,14.13l-36.86,22.66c-3.35,2.06-8.46.9-12.13-2.77s-4.82-8.73-2.79-12.09l22.45-37.07C937.28,348.49,944.07,348.84,948.8,353.56Zm-64.74-18.38h20.38c6.66,0,11.71,4.52,10.53,9.45l-10,42.09c-.91,3.83-5.35,6.62-10.53,6.62s-9.59-2.77-10.52-6.58l-10.34-42.09C872.32,339.74,877.37,335.19,884.06,335.19ZM825.28,368l14.41-14.41c4.71-4.71,11.48-5.08,14.13-.77l22.66,36.86c2.06,3.35.9,8.46-2.77,12.13s-8.73,4.82-12.09,2.79l-37.07-22.45C820.21,379.49,820.56,372.7,825.28,368Zm-8.89,75.26c-4.94,1.21-9.49-3.84-9.49-10.52V412.34c0-6.66,4.52-11.71,9.45-10.53l42.09,10c3.83.91,6.62,5.35,6.62,10.53s-2.77,9.59-6.58,10.52Zm23.3,48.25-14.41-14.41c-4.71-4.71-5.08-11.48-.77-14.13l36.86-22.66c3.35-2.06,8.46-.9,12.13,2.77s4.82,8.73,2.79,12.09l-22.45,37.07C851.21,496.56,844.42,496.21,839.69,491.49Zm64.74,18.38H884.06c-6.66,0-11.71-4.52-10.53-9.45l10-42.09c.91-3.83,5.35-6.62,10.53-6.62h0c5.16,0,9.59,2.77,10.52,6.58L915,500.37C916.17,505.31,911.12,509.86,904.43,509.86Zm58.77-32.78L948.8,491.49c-4.71,4.71-11.48,5.08-14.13.77L912,455.39c-2.06-3.35-.9-8.46,2.77-12.13s8.73-4.82,12.09-2.79l37.07,22.45C968.28,465.56,967.93,472.35,963.21,477.08Zm8.93-33.83-42.09-10c-3.83-.91-6.62-5.35-6.62-10.53s2.77-9.59,6.58-10.52l42.09-10.34c4.94-1.21,9.49,3.84,9.49,10.52v20.38C981.58,439.38,977.06,444.42,972.13,443.25Z"/><circle class="cls-17" cx="894.24" cy="422.52" r="7.26"/><circle class="cls-18" cx="894.24" cy="408.75" r="3.11"/><circle class="cls-18" cx="882.31" cy="415.64" r="3.11" transform="matrix(0.5, -0.87, 0.87, 0.5, 81.21, 971.92)"/><circle class="cls-18" cx="882.31" cy="429.41" r="3.11" transform="translate(-96.5 498.69) rotate(-30)"/><circle class="cls-18" cx="894.24" cy="436.3" r="3.11"/><circle class="cls-18" cx="906.18" cy="429.41" r="3.11" transform="translate(81.21 999.48) rotate(-60)"/><circle class="cls-18" cx="906.18" cy="415.64" r="3.11" transform="translate(-86.41 508.77) rotate(-30)"/><line class="cls-19" x1="287.65" y1="181.06" x2="420.8" y2="181.06"/><line class="cls-19" x1="287.65" y1="193.85" x2="420.8" y2="193.85"/><line class="cls-19" x1="287.65" y1="206.65" x2="420.8" y2="206.65"/><line class="cls-19" x1="287.65" y1="219.45" x2="420.8" y2="219.45"/><line class="cls-19" x1="287.65" y1="232.24" x2="420.8" y2="232.24"/><line class="cls-19" x1="287.65" y1="245.04" x2="420.8" y2="245.04"/><line class="cls-19" x1="287.65" y1="257.84" x2="420.8" y2="257.84"/><rect class="cls-2" x="298.11" y="172.38" width="111.5" height="93.72"/><rect class="cls-14" x="303.48" y="177.53" width="99.85" height="83.42" rx="17.37" ry="17.37"/><circle class="cls-20" cx="353.41" cy="219.45" r="33.54"/><circle class="cls-21" cx="353.41" cy="219.45" r="24.85"/><line class="cls-22" x1="353.41" y1="177.53" x2="353.41" y2="260.95"/><line class="cls-22" x1="401.3" y1="219.45" x2="305.52" y2="219.45"/><text class="cls-23" transform="translate(344.23 235.1)">3</text><line class="cls-19" x1="285.91" y1="172.38" x2="285.91" y2="266.1"/><line class="cls-19" x1="421.3" y1="172.38" x2="421.3" y2="266.1"/><path class="cls-17" d="M814.72,200.89v-.16H642.65v.16a25,25,0,0,1-25,25h0v51.86h.45a24.56,24.56,0,0,1,24.56,24.56H814.72a24.56,24.56,0,0,1,24.56-24.56h.45V225.91h0A25,25,0,0,1,814.72,200.89Z"/><rect class="cls-24" x="652.82" y="209.84" width="154.17" height="80.95" rx="1.74" ry="1.74"/><line class="cls-24" x1="788.68" y1="209.84" x2="788.68" y2="290.79"/><line class="cls-24" x1="671.12" y1="209.84" x2="671.12" y2="290.79"/><text class="cls-25" transform="translate(680.97 258.9)">ADMIT ONE</text><polygon class="cls-18" points="728.68 214.73 731.6 220.64 738.12 221.59 733.4 226.19 734.52 232.68 728.68 229.62 722.85 232.68 723.97 226.19 719.25 221.59 725.77 220.64 728.68 214.73"/><polygon class="cls-18" points="705.92 214.73 708.83 220.64 715.36 221.59 710.63 226.19 711.75 232.68 705.92 229.62 700.08 232.68 701.2 226.19 696.48 221.59 703 220.64 705.92 214.73"/><polygon class="cls-18" points="684.44 214.73 687.36 220.64 693.88 221.59 689.16 226.19 690.27 232.68 684.44 229.62 678.61 232.68 679.72 226.19 675 221.59 681.52 220.64 684.44 214.73"/><polygon class="cls-18" points="774.53 214.73 777.45 220.64 783.97 221.59 779.25 226.19 780.37 232.68 774.53 229.62 768.7 232.68 769.81 226.19 765.09 221.59 771.62 220.64 774.53 214.73"/><polygon class="cls-18" points="751.84 214.73 754.75 220.64 761.27 221.59 756.55 226.19 757.67 232.68 751.84 229.62 746 232.68 747.12 226.19 742.4 221.59 748.92 220.64 751.84 214.73"/><polygon class="cls-18" points="728.68 264.38 731.6 270.29 738.12 271.24 733.4 275.84 734.52 282.33 728.68 279.27 722.85 282.33 723.97 275.84 719.25 271.24 725.77 270.29 728.68 264.38"/><polygon class="cls-18" points="705.92 264.38 708.83 270.29 715.36 271.24 710.63 275.84 711.75 282.33 705.92 279.27 700.08 282.33 701.2 275.84 696.48 271.24 703 270.29 705.92 264.38"/><polygon class="cls-18" points="684.44 264.38 687.36 270.29 693.88 271.24 689.16 275.84 690.27 282.33 684.44 279.27 678.61 282.33 679.72 275.84 675 271.24 681.52 270.29 684.44 264.38"/><polygon class="cls-18" points="774.53 264.38 777.45 270.29 783.97 271.24 779.25 275.84 780.37 282.33 774.53 279.27 768.7 282.33 769.81 275.84 765.09 271.24 771.62 270.29 774.53 264.38"/><polygon class="cls-18" points="751.84 264.38 754.75 270.29 761.27 271.24 756.55 275.84 757.67 282.33 751.84 279.27 746 282.33 747.12 275.84 742.4 271.24 748.92 270.29 751.84 264.38"/><path class="cls-26" d="M1130.23,417.69l-7.13-41.07a12,12,0,0,0-13.92-9.8l-19.12,3.32,1,5.92,19.26-3.34a5.76,5.76,0,0,1,6.66,4.69l7.22,41.6a5.76,5.76,0,0,1-4.69,6.66L1100.29,429l1,5.92,19.12-3.32A12,12,0,0,0,1130.23,417.69Z"/><polygon class="cls-18" points="1117.29 502.1 1017.6 502.1 1048.28 336 1087 336 1117.29 502.1"/><rect class="cls-26" x="1012.81" y="500.1" width="109.27" height="13.8" rx="2.11" ry="2.11"/><rect class="cls-26" x="1044.82" y="327.57" width="45.24" height="8.44" rx="2.18" ry="2.18"/><polygon class="cls-2" points="1047.34 336 1087.56 336 1092.59 366.64 1042.62 366.64 1047.34 336"/><polyline class="cls-27" points="26.29 494.83 109.9 420.74 190.23 494.83"/><path class="cls-28" d="M82.27,110.29v44.25L6.86,200.24C3.51,202.27,0,198,0,191.84V73c0-6.13,3.51-10.43,6.86-8.4Z"/><path class="cls-28" d="M138.45,154.54V110.29l75.41-45.7c3.35-2,6.86,2.26,6.86,8.4V191.84c0,6.13-3.51,10.43-6.86,8.4Z"/><path class="cls-13" d="M131.59,103.43H87.34L41.64,28c-2-3.35,2.26-6.86,8.4-6.86H168.89c6.13,0,10.43,3.51,8.4,6.86Z"/><path class="cls-13" d="M87.34,164.2h44.25l45.7,75.41c2,3.35-2.26,6.86-8.4,6.86H50c-6.13,0-10.43-3.51-8.4-6.86Z"/><circle class="cls-26" cx="109.47" cy="132.41" r="40.46"/><circle class="cls-29" cx="109.47" cy="132.41" r="28.98"/><line class="cls-27" x1="109.47" y1="246.46" x2="109.47" y2="494.83"/><rect class="cls-30" x="99.24" y="358.26" width="21.31" height="52.87" rx="1.68" ry="1.68"/><line class="cls-31" x1="1171.8" y1="371.27" x2="1296.18" y2="514.69"/><line class="cls-31" x1="1296.18" y1="371.27" x2="1171.8" y2="514.69"/><line class="cls-31" x1="1171.8" y1="212.36" x2="1171.8" y2="356.51"/><line class="cls-31" x1="1296.18" y1="212.36" x2="1296.18" y2="356.51"/><rect class="cls-17" x="1138.8" y="225.32" width="183.11" height="83.5" rx="11.97" ry="11.97"/><rect class="cls-17" x="1138.8" y="349.8" width="183.11" height="32.72" rx="11.97" ry="11.97"/><polygon class="cls-18" points="1230.36 236.45 1237.96 259.84 1262.56 259.84 1242.66 274.3 1250.26 297.69 1230.36 283.23 1210.46 297.69 1218.06 274.3 1198.16 259.84 1222.76 259.84 1230.36 236.45"/><line class="cls-32" x1="359.59" y1="301.07" x2="248.19" y2="301.07"/><path class="cls-10" d="M432,455.28l-39-8.48V404.72l39-8.48a5.39,5.39,0,0,1,6.53,5.26V450A5.39,5.39,0,0,1,432,455.28Z"/><rect class="cls-1" x="212.26" y="370.72" width="183.26" height="105.1" rx="12.9" ry="12.9"/><circle class="cls-18" cx="251.29" cy="325.82" r="28.13"/><path class="cls-8" d="M251.29,281.23a44.59,44.59,0,1,0,44.59,44.59A44.59,44.59,0,0,0,251.29,281.23Zm23.49,14.9,6.2,6.2c2,2,2.19,4.94.33,6.08l-15.87,9.76c-1.44.89-3.64.39-5.22-1.19s-2.08-3.76-1.2-5.21l9.67-16C269.81,293.94,272.74,294.09,274.77,296.13Zm-27.87-7.91h8.77c2.87,0,5,1.95,4.53,4.07l-4.32,18.12c-.39,1.65-2.3,2.85-4.53,2.85s-4.13-1.19-4.53-2.83l-4.45-18.12C241.85,290.18,244,288.22,246.9,288.22Zm-25.3,14.12,6.2-6.2c2-2,4.94-2.19,6.08-.33l9.76,15.87c.89,1.44.39,3.64-1.19,5.22s-3.76,2.08-5.21,1.2l-16-9.67C219.41,307.29,219.56,304.37,221.59,302.33Zm-3.83,32.4c-2.13.52-4.09-1.65-4.09-4.53v-8.77c0-2.87,1.95-5,4.07-4.53l18.12,4.32c1.65.39,2.85,2.3,2.85,4.53s-1.19,4.13-2.83,4.53Zm10,20.77-6.2-6.2c-2-2-2.19-4.94-.33-6.08l15.87-9.76c1.44-.89,3.64-.39,5.22,1.19s2.08,3.76,1.2,5.21l-9.67,16C232.76,357.7,229.83,357.55,227.8,355.51Zm27.87,7.91H246.9c-2.87,0-5-1.95-4.53-4.07l4.32-18.12c.39-1.65,2.3-2.85,4.53-2.85h0c2.22,0,4.13,1.19,4.53,2.83l4.45,18.12C260.72,361.46,258.55,363.42,255.67,363.42ZM281,349.31l-6.2,6.2c-2,2-4.94,2.19-6.08.33L258.93,340c-.89-1.44-.39-3.64,1.19-5.22s3.76-2.08,5.21-1.2l16,9.67C283.16,344.35,283,347.27,281,349.31Zm3.84-14.57-18.12-4.32c-1.65-.39-2.85-2.3-2.85-4.53s1.19-4.13,2.83-4.53l18.12-4.45c2.13-.52,4.09,1.65,4.09,4.53v8.77C288.89,333.07,286.94,335.25,284.82,334.74Z"/><circle class="cls-17" cx="251.29" cy="325.82" r="3.13"/><circle class="cls-2" cx="251.29" cy="319.89" r="1.34"/><circle class="cls-2" cx="246.15" cy="322.85" r="1.34" transform="translate(-156.52 374.6) rotate(-60)"/><circle class="cls-2" cx="246.15" cy="328.78" r="1.34" transform="translate(-131.41 167.12) rotate(-30)"/><circle class="cls-2" cx="251.29" cy="331.75" r="1.34"/><circle class="cls-2" cx="256.42" cy="328.78" r="1.34" transform="translate(-156.52 386.46) rotate(-60)"/><circle class="cls-2" cx="256.42" cy="322.85" r="1.34" transform="translate(-127.07 171.47) rotate(-30)"/><circle class="cls-18" cx="354.95" cy="325.82" r="28.13"/><path class="cls-8" d="M354.95,281.23a44.59,44.59,0,1,0,44.59,44.59A44.59,44.59,0,0,0,354.95,281.23Zm23.49,14.9,6.2,6.2c2,2,2.19,4.94.33,6.08l-15.87,9.76c-1.44.89-3.64.39-5.22-1.19s-2.08-3.76-1.2-5.21l9.67-16C373.48,293.94,376.4,294.09,378.43,296.13Zm-27.87-7.91h8.77c2.87,0,5,1.95,4.53,4.07l-4.32,18.12c-.39,1.65-2.3,2.85-4.53,2.85s-4.13-1.19-4.53-2.83L346,292.3C345.51,290.18,347.68,288.22,350.56,288.22Zm-25.3,14.12,6.2-6.2c2-2,4.94-2.19,6.08-.33l9.76,15.87c.89,1.44.39,3.64-1.19,5.22s-3.76,2.08-5.21,1.2l-16-9.67C323.07,307.29,323.22,304.37,325.25,302.33Zm-3.83,32.4c-2.13.52-4.09-1.65-4.09-4.53v-8.77c0-2.87,1.95-5,4.07-4.53l18.12,4.32c1.65.39,2.85,2.3,2.85,4.53s-1.19,4.13-2.83,4.53Zm10,20.77-6.2-6.2c-2-2-2.19-4.94-.33-6.08l15.87-9.76c1.44-.89,3.64-.39,5.22,1.19s2.08,3.76,1.2,5.21l-9.67,16C336.42,357.7,333.49,357.55,331.46,355.51Zm27.87,7.91h-8.77c-2.87,0-5-1.95-4.53-4.07l4.32-18.12c.39-1.65,2.3-2.85,4.53-2.85h0c2.22,0,4.13,1.19,4.53,2.83l4.45,18.12C364.39,361.46,362.21,363.42,359.33,363.42Zm25.3-14.12-6.2,6.2c-2,2-4.94,2.19-6.08.33L362.59,340c-.89-1.44-.39-3.64,1.19-5.22s3.76-2.08,5.21-1.2l16,9.67C386.82,344.35,386.67,347.27,384.64,349.31Zm3.84-14.57-18.12-4.32c-1.65-.39-2.85-2.3-2.85-4.53s1.19-4.13,2.83-4.53l18.12-4.45c2.13-.52,4.09,1.65,4.09,4.53v8.77C392.55,333.07,390.6,335.25,388.48,334.74Z"/><circle class="cls-17" cx="354.95" cy="325.82" r="3.13"/><circle class="cls-2" cx="354.95" cy="319.89" r="1.34"/><circle class="cls-2" cx="349.81" cy="322.85" r="1.34" transform="translate(-104.69 464.37) rotate(-60)"/><circle class="cls-2" cx="349.81" cy="328.78" r="1.34" transform="translate(-117.53 218.95) rotate(-30)"/><circle class="cls-2" cx="354.95" cy="331.75" r="1.34"/><circle class="cls-2" cx="360.08" cy="328.78" r="1.34" transform="translate(-104.69 476.23) rotate(-60)"/><circle class="cls-2" cx="360.08" cy="322.85" r="1.34" transform="translate(-113.18 223.3) rotate(-30)"/><rect class="cls-17" x="261.46" y="410.08" width="105.16" height="31.36" rx="4.08" ry="4.08"/><line class="cls-33" x1="436.52" y1="393.97" x2="436.52" y2="457.54"/><rect class="cls-8" x="261.46" y="390.81" width="105.16" height="11.89" rx="1.96" ry="1.96"/><circle class="cls-26" cx="229.48" cy="461.12" r="4.3"/><circle class="cls-26" cx="243.18" cy="461.12" r="3.04"/><circle class="cls-26" cx="256.42" cy="461.12" r="3.04"/><path class="cls-10" d="M205.76,408.85h6.5a0,0,0,0,1,0,0V439.9a0,0,0,0,1,0,0h-5.18a3.73,3.73,0,0,1-3.73-3.73v-24.9A2.42,2.42,0,0,1,205.76,408.85Z"/><rect class="cls-1" x="190.71" y="417.96" width="12.64" height="12.83"/><line class="cls-34" x1="190.71" y1="410.08" x2="190.71" y2="437.44"/><path class="cls-35" d="M895.6,169.85h162.19a6.41,6.41,0,0,1,6.41,6.41V288.19a0,0,0,0,1,0,0h-175a0,0,0,0,1,0,0V176.26A6.41,6.41,0,0,1,895.6,169.85Z"/><rect class="cls-9" x="899.2" y="179.79" width="155" height="98.46"/><rect class="cls-13" x="865.33" y="288.19" width="222.71" height="7.28"/><path class="cls-36" d="M1071.75,300H878.22a16.11,16.11,0,0,1-7.2-1.68l-5.67-2.84h222.71l-10.17,3.5A18.86,18.86,0,0,1,1071.75,300Z"/><line class="cls-37" x1="960.26" y1="292.33" x2="993.1" y2="292.33"/><path class="cls-9" d="M956.77,288.19h39.85a0,0,0,0,1,0,0v0a4.12,4.12,0,0,1-4.12,4.12H960.89a4.12,4.12,0,0,1-4.12-4.12v0A0,0,0,0,1,956.77,288.19Z"/><rect class="cls-26" x="667.73" y="332.31" width="95.25" height="122.94" rx="6.15" ry="6.15"/><rect class="cls-9" x="677.17" y="342.8" width="75.36" height="103.89"/><path class="cls-2" d="M744.61,340a7.15,7.15,0,0,0-7-5.7h-2.46a8.71,8.71,0,0,1-8.71-8.71h-7.68a6.24,6.24,0,1,0-6.82,0h-7.68a8.71,8.71,0,0,1-8.71,8.71H692.7a7.15,7.15,0,0,0-7.06,6l-1.5,5h62.42Zm-29.25-16.95a3,3,0,1,1,3-3A3,3,0,0,1,715.35,323.05Z"/></svg>