<svg id="Layer_1" data-name="Layer 1" xmlns="http://www.w3.org/2000/svg" viewBox="0 0 476 415.19"><defs><style>.cls-1{fill:#fff;}.cls-2{fill:#bababa;}.cls-3{fill:#f3a11e;}.cls-4{fill:#ed5943;}.cls-5{fill:#78bbc0;}.cls-6{fill:#0d3557;}</style></defs><title>Artboard 17</title><rect class="cls-1" x="13.61" y="4.58" width="268.39" height="342.54" rx="11.97" ry="11.97"/><rect class="cls-1" x="323.61" y="196.16" width="117.39" height="193" rx="11.97" ry="11.97"/><rect class="cls-1" x="333.52" y="217.53" width="97.57" height="145.64" rx="6.07" ry="6.07"/><rect class="cls-1" x="32.13" y="37.04" width="233.08" height="276.02" rx="3.57" ry="3.57"/><circle class="cls-2" cx="148.68" cy="331.12" r="8.31"/><circle class="cls-2" cx="148.68" cy="24.52" r="3.46"/><circle class="cls-2" cx="382.31" cy="376.09" r="7.55"/><circle class="cls-2" cx="382.31" cy="205.72" r="2.54"/><rect class="cls-3" x="37.99" y="43.31" width="48.78" height="264.93" rx="3.53" ry="3.53"/><rect class="cls-4" x="93.58" y="43.31" width="165.48" height="48.54" rx="3.53" ry="3.53"/><rect class="cls-4" x="337.76" y="221.29" width="88.24" height="28.66" rx="3.53" ry="3.53"/><rect class="cls-5" x="337.76" y="254.79" width="88.24" height="88.24" rx="3.53" ry="3.53"/><rect class="cls-6" x="338.18" y="347.22" width="88.24" height="11.03" rx="3.53" ry="3.53"/><rect class="cls-5" x="93.58" y="96.65" width="165.48" height="109.32" rx="3.53" ry="3.53"/><rect class="cls-6" x="93.58" y="210.73" width="165.48" height="12.42" rx="3.53" ry="3.53"/><rect class="cls-4" x="93.58" y="227.91" width="165.48" height="80.33" rx="3.53" ry="3.53"/><circle class="cls-3" cx="372.65" cy="235.62" r="7.12"/><circle class="cls-3" cx="354.21" cy="235.62" r="7.12"/><circle class="cls-3" cx="391.96" cy="235.62" r="7.12"/><circle class="cls-3" cx="410.29" cy="235.62" r="7.12"/></svg>