<svg id="Layer_1" data-name="Layer 1" xmlns="http://www.w3.org/2000/svg" viewBox="0 0 150 150"><defs><style>.cls-1{fill:#78bbc0;}.cls-2{fill:#f3a11e;}.cls-3,.cls-4{fill:none;stroke:#0d3557;stroke-miterlimit:10;stroke-width:2px;}.cls-3{stroke-linecap:round;}.cls-4{stroke-linecap:square;}</style></defs><title>Artboard 2 copy 26</title><circle class="cls-1" cx="75" cy="75" r="75"/><rect class="cls-2" x="43.14" y="34.23" width="66" height="89.5" rx="4.71" ry="4.71"/><line class="cls-3" x1="39.64" y1="44.25" x2="46.64" y2="44.25"/><line class="cls-3" x1="39.64" y1="50.23" x2="46.64" y2="50.23"/><line class="cls-3" x1="39.64" y1="56.2" x2="46.64" y2="56.2"/><line class="cls-3" x1="39.64" y1="62.18" x2="46.64" y2="62.18"/><line class="cls-3" x1="39.64" y1="68.15" x2="46.64" y2="68.15"/><line class="cls-3" x1="39.64" y1="74.13" x2="46.64" y2="74.13"/><line class="cls-3" x1="39.64" y1="80.1" x2="46.64" y2="80.1"/><line class="cls-3" x1="39.64" y1="86.08" x2="46.64" y2="86.08"/><line class="cls-3" x1="39.64" y1="92.06" x2="46.64" y2="92.06"/><line class="cls-3" x1="39.64" y1="98.03" x2="46.64" y2="98.03"/><line class="cls-3" x1="39.64" y1="104.01" x2="46.64" y2="104.01"/><line class="cls-3" x1="39.64" y1="109.98" x2="46.64" y2="109.98"/><line class="cls-3" x1="39.64" y1="115.96" x2="46.64" y2="115.96"/><line class="cls-4" x1="57.39" y1="58.41" x2="97.89" y2="58.41"/><line class="cls-4" x1="63.14" y1="66.98" x2="92.14" y2="66.98"/></svg>