<svg id="Layer_1" data-name="Layer 1" xmlns="http://www.w3.org/2000/svg" viewBox="0 0 458.07 421.48"><defs><style>.cls-1{fill:#ed5943;}.cls-2{fill:#bb382b;}.cls-3{fill:#fff;}.cls-4{fill:#1e1e1e;}.cls-10,.cls-11,.cls-12,.cls-13,.cls-22,.cls-5,.cls-8{fill:none;}.cls-5,.cls-6{stroke:#1e1e1e;}.cls-10,.cls-11,.cls-12,.cls-13,.cls-21,.cls-22,.cls-5,.cls-6{stroke-miterlimit:10;}.cls-5{stroke-width:2.27px;}.cls-6{fill:#231f20;stroke-width:3.78px;}.cls-7{fill:#f3a11e;}.cls-9{fill:#78bbc0;}.cls-10{stroke:#c37e2a;stroke-width:3.53px;}.cls-11,.cls-12,.cls-21{stroke:#fff;}.cls-11,.cls-12,.cls-13,.cls-21,.cls-22{stroke-linecap:round;}.cls-11{stroke-width:1.41px;}.cls-12{stroke-width:0.71px;}.cls-13{stroke:#dcdbdb;stroke-width:5px;}.cls-14{fill:#d78b28;}.cls-15{fill:#f6d9b0;}.cls-16{fill:#0d3557;}.cls-17,.cls-21{fill:#dcdbdb;}.cls-18{fill:#42607b;}.cls-19{fill:#c5e7e8;}.cls-20{fill:#bababa;}.cls-21{stroke-width:3.12px;}.cls-22{stroke:#0d3557;stroke-width:3.71px;}</style></defs><title>Artboard 12</title><rect class="cls-1" x="102.28" y="193.78" width="144" height="207.84" rx="10.63" ry="10.63"/><rect class="cls-2" x="202.78" y="193.78" width="7" height="207.84"/><path class="cls-3" d="M38.67,44.07H236a0,0,0,0,1,0,0v121.2a12,12,0,0,1-12,12H50.66a12,12,0,0,1-12-12V44.07A0,0,0,0,1,38.67,44.07Z"/><path class="cls-3" d="M46.3,28.56h182A7.63,7.63,0,0,1,236,36.19v7.89a0,0,0,0,1,0,0H38.67a0,0,0,0,1,0,0V36.19A7.63,7.63,0,0,1,46.3,28.56Z"/><path class="cls-4" d="M45.72,27H228.9A7.05,7.05,0,0,1,236,34.1V62.61a0,0,0,0,1,0,0H38.67a0,0,0,0,1,0,0V34.1A7.05,7.05,0,0,1,45.72,27Z"/><polygon class="cls-3" points="84.97 42.56 72.86 42.56 66.81 27.05 78.92 27.05 84.97 42.56"/><polygon class="cls-3" points="109.57 42.56 97.46 42.56 91.41 27.05 103.52 27.05 109.57 42.56"/><polygon class="cls-3" points="134.17 42.56 122.06 42.56 116 27.05 128.11 27.05 134.17 42.56"/><polygon class="cls-3" points="158.76 42.56 146.65 42.56 140.6 27.05 152.71 27.05 158.76 42.56"/><polygon class="cls-3" points="183.36 42.56 171.25 42.56 165.2 27.05 177.31 27.05 183.36 42.56"/><polygon class="cls-3" points="207.96 42.56 195.85 42.56 189.79 27.05 201.9 27.05 207.96 42.56"/><polygon class="cls-3" points="232.55 42.56 220.44 42.56 214.39 27.05 226.5 27.05 232.55 42.56"/><polygon class="cls-3" points="214.39 59.59 226.5 59.59 232.55 44.07 220.44 44.07 214.39 59.59"/><polygon class="cls-3" points="189.79 59.59 201.9 59.59 207.96 44.07 195.85 44.07 189.79 59.59"/><polygon class="cls-3" points="165.2 59.59 177.31 59.59 183.36 44.07 171.25 44.07 165.2 59.59"/><polygon class="cls-3" points="140.6 59.59 152.71 59.59 158.76 44.07 146.65 44.07 140.6 59.59"/><polygon class="cls-3" points="116 59.59 128.11 59.59 134.17 44.07 122.06 44.07 116 59.59"/><polygon class="cls-3" points="91.41 59.59 103.52 59.59 109.57 44.07 97.46 44.07 91.41 59.59"/><polygon class="cls-3" points="66.81 59.59 78.92 59.59 84.97 44.07 72.86 44.07 66.81 59.59"/><line class="cls-5" x1="50.54" y1="84" x2="223.47" y2="84"/><line class="cls-5" x1="50.54" y1="115.59" x2="223.47" y2="115.59"/><line class="cls-5" x1="50.54" y1="158.92" x2="223.47" y2="158.92"/><line class="cls-5" x1="101.62" y1="115.59" x2="101.62" y2="84"/><line class="cls-5" x1="175.6" y1="115.59" x2="175.6" y2="84"/><line class="cls-6" x1="50.54" y1="77.37" x2="75.89" y2="77.37"/><line class="cls-6" x1="59.62" y1="89.1" x2="84.97" y2="89.1"/><line class="cls-6" x1="50.54" y1="148.89" x2="91.41" y2="148.89"/><line class="cls-6" x1="50.54" y1="165.92" x2="78.54" y2="165.92"/><line class="cls-6" x1="153.09" y1="165.92" x2="181.09" y2="165.92"/><line class="cls-6" x1="190.93" y1="165.92" x2="218.93" y2="165.92"/><line class="cls-6" x1="50.54" y1="133.76" x2="91.41" y2="133.76"/><line class="cls-6" x1="124.33" y1="89.1" x2="149.68" y2="89.1"/><line class="cls-6" x1="189.04" y1="89.1" x2="214.39" y2="89.1"/><rect class="cls-7" x="44.12" y="233.75" width="30.74" height="148.54" rx="6.54" ry="6.54"/><path class="cls-8" d="M54.45,383.53v-1.24H48.1c-2.19,0-4-2.07-4-4.62v5.86Z"/><path class="cls-8" d="M48.1,233.75h6.36v-1.24H44.12v5.86C44.12,235.82,45.9,233.75,48.1,233.75Z"/><path class="cls-9" d="M48.1,382.29h5V233.75h-5c-2.19,0-4,2.07-4,4.62v139.3C44.12,380.22,45.9,382.29,48.1,382.29Z"/><line class="cls-10" x1="59.49" y1="274.54" x2="59.49" y2="344.49"/><line class="cls-11" x1="74.86" y1="245.75" x2="66.02" y2="245.75"/><line class="cls-12" x1="74.86" y1="250.75" x2="68.94" y2="250.75"/><line class="cls-12" x1="75.03" y1="255.05" x2="68.94" y2="255.05"/><line class="cls-11" x1="74.86" y1="259.97" x2="66.02" y2="259.97"/><line class="cls-12" x1="74.86" y1="264.97" x2="68.94" y2="264.97"/><line class="cls-12" x1="75.03" y1="269.27" x2="68.94" y2="269.27"/><line class="cls-11" x1="74.86" y1="274.18" x2="66.02" y2="274.18"/><line class="cls-12" x1="74.86" y1="279.18" x2="68.94" y2="279.18"/><line class="cls-12" x1="75.03" y1="283.48" x2="68.94" y2="283.48"/><line class="cls-11" x1="74.86" y1="288.4" x2="66.02" y2="288.4"/><line class="cls-12" x1="74.86" y1="293.4" x2="68.94" y2="293.4"/><line class="cls-12" x1="75.03" y1="297.7" x2="68.94" y2="297.7"/><line class="cls-11" x1="74.86" y1="302.61" x2="66.02" y2="302.61"/><line class="cls-12" x1="74.86" y1="307.61" x2="68.94" y2="307.61"/><line class="cls-12" x1="75.03" y1="311.91" x2="68.94" y2="311.91"/><line class="cls-11" x1="74.86" y1="316.83" x2="66.02" y2="316.83"/><line class="cls-12" x1="74.86" y1="321.83" x2="68.94" y2="321.83"/><line class="cls-12" x1="75.03" y1="326.13" x2="68.94" y2="326.13"/><line class="cls-11" x1="74.86" y1="331.04" x2="66.02" y2="331.04"/><line class="cls-12" x1="74.86" y1="336.05" x2="68.94" y2="336.05"/><line class="cls-12" x1="75.03" y1="340.34" x2="68.94" y2="340.34"/><line class="cls-11" x1="74.86" y1="345.26" x2="66.02" y2="345.26"/><line class="cls-12" x1="74.86" y1="350.26" x2="68.94" y2="350.26"/><line class="cls-12" x1="75.03" y1="354.56" x2="68.94" y2="354.56"/><line class="cls-11" x1="74.86" y1="359.48" x2="66.02" y2="359.48"/><line class="cls-12" x1="74.86" y1="364.48" x2="68.94" y2="364.48"/><line class="cls-12" x1="75.03" y1="368.78" x2="68.94" y2="368.78"/><line class="cls-11" x1="75.12" y1="373.69" x2="66.29" y2="373.69"/><circle class="cls-3" cx="59.49" cy="239.3" r="2.04"/><rect class="cls-7" x="260.63" y="103.01" width="26.63" height="119.98" transform="translate(547.9 326.01) rotate(180)"/><line class="cls-13" x1="259.53" y1="222.99" x2="288.2" y2="222.99"/><path class="cls-1" d="M269.74,225.51h8.41a9.11,9.11,0,0,1,9.11,9.11v3.84a0,0,0,0,1,0,0H260.63a0,0,0,0,1,0,0v-3.84A9.11,9.11,0,0,1,269.74,225.51Z" transform="translate(547.9 463.96) rotate(-180)"/><rect class="cls-14" x="269.42" y="103.01" width="9.07" height="117.33" transform="translate(547.9 323.36) rotate(180)"/><path class="cls-15" d="M272.33,83l-11.7,20h26.63l-11.7-20A1.88,1.88,0,0,0,272.33,83Z"/><path class="cls-8" d="M272.33,83a1.88,1.88,0,0,1,3.24,0l1.92,3.29h2.27V79.39H266.32v6.94h4.08Z"/><path class="cls-4" d="M272.33,83l-1.92,3.29h7.09L275.57,83A1.88,1.88,0,0,0,272.33,83Z"/><rect class="cls-16" x="301.08" y="26.74" width="139.24" height="177.72" rx="11.97" ry="11.97"/><rect class="cls-17" x="310.69" y="43.58" width="120.93" height="143.2" rx="3.57" ry="3.57"/><circle class="cls-18" cx="371.15" cy="196.15" r="4.31"/><path class="cls-17" d="M285,274.71H418.17a12,12,0,0,1,12,12v76a17.91,17.91,0,0,1-17.91,17.91H291A17.91,17.91,0,0,1,273,362.64v-76A12,12,0,0,1,285,274.71Z"/><path class="cls-4" d="M284.44,274.71H418.73a11.4,11.4,0,0,1,11.4,11.4v76.06a0,0,0,0,1,0,0H273a0,0,0,0,1,0,0V286.11A11.4,11.4,0,0,1,284.44,274.71Z"/><rect class="cls-19" x="281.14" y="281.83" width="140.1" height="72.94" rx="2.44" ry="2.44"/><polygon class="cls-20" points="370.28 397.35 334.96 397.35 337.04 380.55 367.79 380.55 370.28 397.35"/><line class="cls-21" x1="323.32" y1="397.35" x2="381.92" y2="397.35"/><circle class="cls-4" cx="352.62" cy="370.99" r="3.13"/><rect class="cls-16" x="285.08" y="287.62" width="55.66" height="32.65" rx="4.36" ry="4.36"/><rect class="cls-16" x="342.78" y="287.62" width="55.66" height="32.65" rx="4.36" ry="4.36"/><line class="cls-22" x1="288.73" y1="323.49" x2="337.09" y2="323.49"/><line class="cls-22" x1="346.43" y1="323.49" x2="394.79" y2="323.49"/><rect class="cls-7" x="285.08" y="328.08" width="113.36" height="23.98" rx="4.32" ry="4.32"/><rect class="cls-16" x="400.73" y="287.62" width="16.7" height="32.65" rx="3.53" ry="3.53"/><rect class="cls-16" x="400.73" y="321.76" width="16.7" height="30.3" rx="3.53" ry="3.53"/><rect class="cls-16" x="287.06" y="330.17" width="7.92" height="20.41" rx="3.28" ry="3.28"/><circle class="cls-1" cx="286.24" cy="284.85" r="1.16"/><circle class="cls-1" cx="290.33" cy="284.85" r="1.16"/><circle class="cls-1" cx="294.43" cy="284.85" r="1.16"/></svg>