<?xml version="1.0" encoding="utf-8"?>
<!-- Generator: Adobe Illustrator 21.0.2, SVG Export Plug-In . SVG Version: 6.00 Build 0)  -->
<svg version="1.1" id="Layer_1" xmlns="http://www.w3.org/2000/svg" xmlns:xlink="http://www.w3.org/1999/xlink" x="0px" y="0px"
	 viewBox="0 0 1366 376.4" style="enable-background:new 0 0 1366 376.4;" xml:space="preserve">
<style type="text/css">
	.st0{clip-path:url(#SVGID_2_);}
	.st1{opacity:0.44;}
	.st2{fill:#FFFFFF;}
	.st3{fill:none;stroke:#FFFFFF;stroke-width:45.62;stroke-miterlimit:10;}
	.st4{clip-path:url(#SVGID_4_);}
	.st5{fill:#78BBC0;}
	.st6{opacity:0.47;}
	.st7{enable-background:new    ;}
</style>
<title>Artboard 91 copy 2</title>
<g>
	<g>
		<g>
			<defs>
				<rect id="SVGID_1_" x="-0.3" y="490.1" width="1366.7" height="477"/>
			</defs>
			<clipPath id="SVGID_2_">
				<use xlink:href="#SVGID_1_"  style="overflow:visible;"/>
			</clipPath>
			<g class="st0">
				<g class="st1">
					<rect x="227.6" y="344" class="st2" width="915" height="769.1"/>
					<line class="st3" x1="127.5" y1="344" x2="127.5" y2="1113.1"/>
					<line class="st3" x1="1238.5" y1="344" x2="1238.5" y2="1113.1"/>
				</g>
			</g>
		</g>
	</g>
</g>
<g>
	<g>
		<g>
			<defs>
				<rect id="SVGID_3_" x="-0.3" y="-99.1" width="1366.7" height="478.6"/>
			</defs>
			<clipPath id="SVGID_4_">
				<use xlink:href="#SVGID_3_"  style="overflow:visible;"/>
			</clipPath>
			<g class="st4">
				<rect x="-0.3" y="-102.7" class="st5" width="1366.7" height="478.6"/>
				<g class="st6">
					<ellipse class="st2" cx="183.1" cy="275.4" rx="8.6" ry="8.6"/>
					<path class="st2" d="M197.9,296.1h367c12.9,0,23.4,10.5,23.4,23.5v196.6c0,12.9-10.5,23.5-23.4,23.5h-367
						c-12.9,0-23.4-10.5-23.4-23.5V319.6C174.5,306.7,185,296.1,197.9,296.1z"/>
					<ellipse class="st2" cx="244" cy="275.4" rx="8.6" ry="8.6"/>
					<ellipse class="st2" cx="213.6" cy="275.4" rx="8.6" ry="8.6"/>
					<path class="st2" d="M1053.2,296.1h86.3c10.5,0,18.9,8.5,18.9,19v205.6c0,10.5-8.5,19-18.9,19h-86.3c-10.5,0-18.9-8.5-18.9-19
						V315.1C1034.2,304.5,1042.8,296.1,1053.2,296.1z"/>
					<path class="st2" d="M1191.7,199.8H146.2c-33.8,0-61.2,27.5-61.2,61.4v590.9h1167.9v-591
						C1252.9,227.2,1225.5,199.7,1191.7,199.8z M1186.8,783.7c0,7.3-5.9,13.1-13.1,13.2l0,0H158.4c-7.3,0-13.1-5.9-13.1-13.1l0,0
						V266c0-7.3,5.9-13.1,13.1-13.1l0,0h1015.4c7.3,0,13.1,5.9,13.1,13.1l0,0L1186.8,783.7z"/>
					<path class="st2" d="M626.9,296.1h367c12.9,0,23.4,10.5,23.4,23.5v196.6c0,12.9-10.5,23.5-23.4,23.5h-367
						c-12.9,0-23.4-10.5-23.4-23.5V319.6C603.5,306.7,614,296.1,626.9,296.1z"/>
				</g>
			</g>
		</g>
	</g>
</g>
<g>
	<g class="st7">
		<path class="st2" d="M400.5,150.4l-6-43.3h7.9l3.2,26.4l4.1-26.4h6.2l4.3,26.3l3.2-26.3h7.8l-6,43.3h-7.8l-4.5-27.3l-4.4,27.3
			H400.5z"/>
		<path class="st2" d="M436.3,150.4v-43.3h20v6.1h-10.6v11.4h8.2v6.2h-8.2v13.5h10.8v6H436.3z"/>
		<path class="st2" d="M487,151c-2.2,0-4.2-0.3-5.9-1c-1.6-0.7-2.9-1.7-3.9-3c-1-1.3-1.6-2.9-2.1-4.7c-0.4-1.8-0.7-3.9-0.7-6.2
			v-14.2c0-2,0.1-3.7,0.4-5.2c0.3-1.5,0.7-2.9,1.4-4.2c0.6-1.3,1.5-2.3,2.5-3.2c1-0.8,2.3-1.5,3.8-1.9c1.6-0.4,3.3-0.7,5.3-0.7
			c2.4,0,4.4,0.3,6.1,0.8c1.7,0.6,3.1,1.4,4.1,2.5c1,1.1,1.7,2.4,2.2,4s0.7,3.3,0.7,5.3v2.4h-9.1v-2.9c0-0.8,0-1.5-0.1-2
			c-0.1-0.5-0.1-1-0.3-1.6c-0.1-0.5-0.3-1-0.6-1.3s-0.7-0.6-1.2-0.8c-0.5-0.2-1.1-0.3-1.8-0.3s-1.4,0.1-1.9,0.4
			c-0.5,0.2-0.9,0.5-1.2,0.9c-0.3,0.3-0.5,0.9-0.7,1.5c-0.1,0.6-0.3,1.2-0.3,1.7c0,0.5-0.1,1.2-0.1,2v18.8c0,2.1,0.3,3.7,0.9,4.8
			c0.6,1.1,1.8,1.7,3.4,1.7c1.7,0,2.9-0.6,3.5-1.8c0.7-1.2,1-2.8,1-5v-4.3H488v-5.4h12.9v22.3h-6.1l-0.6-4
			C493.1,149.5,490.6,151,487,151z"/>
		<path class="st2" d="M507.5,150.4v-43.3h20v6.1h-10.6v11.4h8.2v6.2h-8.2v13.5h10.8v6H507.5z"/>
		<path class="st2" d="M536.6,150.4v-36.8h-7.3v-6.5h23.9v6.5h-7.3v36.8H536.6z"/>
		<path class="st2" d="M568.9,150.4l8.9-43.3H588l8.9,43.3h-8.7l-1.7-9.6h-7.3l-1.7,9.6H568.9z M580.3,135.4h5.5l-2.7-17.2
			L580.3,135.4z"/>
		<path class="st2" d="M601.5,150.4v-43.3h6.5l10.2,22.5v-22.5h7.8v43.3h-6.2l-10.3-23.9v23.9H601.5z"/>
	</g>
	<g class="st7">
		<path class="st2" d="M662.6,140.4c0-1.9,0-4.4,0.3-7.1l-5.6,0.7c-3.2,0.4-6.3,0.8-8.6,0.7c-2.2,5-4,10.2-5.8,14.6
			c-1,2.2-2.3,1.8-2.9,0.3c-0.5-1.3-1-2.2-1-3.9s0.3-4.1,1.3-7.2c0.5-1.6,1-3.4,1.9-5.6c-1.4-1.4-2.2-2.9-2.4-3.5
			c-0.6-2-0.3-2.7,1.8-2.2c1.1,0.2,1.8,0.3,2.9,0.4c6-13.8,17.1-34.2,25.6-43.6c1.8-1.9,3-1.8,4.2,0.3c0.8,1.4,1.3,2.5,1.8,4.4
			c0.4,1.3,0.6,2.5,0.6,3.7s-0.1,2.7-0.6,4.4c-1.8,7.6-4.1,18.6-5.6,29.7c2.2,1.3,3,3.3,3.5,5.5c0.4,1.7-0.1,2.1-1.6,1.8l-2.8-0.6
			c-0.5,5.3-0.9,10.7-1,15.8c0,1.9-1,2.3-2.5,1.5C664.3,149.2,662.8,146.4,662.6,140.4z M668.3,98.6c-5.1,8.1-10.9,18.3-15.9,28.6
			c1.6-0.2,3.2-0.4,4.8-0.7c2.7-0.4,4.5-0.8,6.7-1C664.7,116.8,666.3,106.6,668.3,98.6z"/>
	</g>
	<g class="st7">
		<path class="st2" d="M691.8,149.8v-48.6h9.3v48.6H691.8z"/>
		<path class="st2" d="M708.1,149.8v-48.6h6.5l10.2,25.2v-25.2h7.8v48.6h-6.2L716,122.9v26.9H708.1z"/>
		<path class="st2" d="M757.9,149.8v-41.3h-7.3v-7.3h23.9v7.3h-7.2v41.3H757.9z"/>
		<path class="st2" d="M778.2,149.8v-48.6h20v6.9h-10.6v12.9h8.2v6.9h-8.2V143h10.8v6.8H778.2z"/>
		<path class="st2" d="M800.7,149.8l8.9-48.6h10.2l8.9,48.6h-8.7l-1.7-10.8h-7.3l-1.7,10.8H800.7z M812.1,132.9h5.5l-2.7-19.3
			L812.1,132.9z"/>
		<path class="st2" d="M846.1,150.4c-2.5,0-4.6-0.4-6.4-1.2s-3.1-1.9-4.2-3.4s-1.8-3.2-2.2-5.1c-0.4-1.9-0.7-4.1-0.7-6.7v-17.1
			c0-2.6,0.2-4.9,0.7-6.9c0.4-1.9,1.2-3.6,2.2-5.1s2.4-2.6,4.2-3.3c1.8-0.8,3.9-1.1,6.4-1.1c2.4,0,4.4,0.3,6.1,1
			c1.7,0.7,3,1.6,4,2.9c1,1.3,1.6,2.7,2.1,4.4c0.4,1.6,0.7,3.6,0.7,5.8v4.2h-9.1v-4.6c0-0.5,0-0.9,0-1.2c0-0.2,0-0.5,0-1
			s-0.1-0.8-0.1-1c-0.1-0.2-0.1-0.5-0.2-0.9c-0.1-0.4-0.2-0.7-0.3-0.8c-0.1-0.2-0.3-0.4-0.5-0.7c-0.2-0.3-0.4-0.4-0.7-0.5
			c-0.3-0.1-0.5-0.2-0.9-0.3s-0.7-0.1-1.1-0.1c-0.7,0-1.4,0.1-1.8,0.4c-0.5,0.3-0.9,0.6-1.2,1c-0.3,0.4-0.5,0.9-0.6,1.6
			c-0.1,0.7-0.3,1.3-0.3,1.9c-0.1,0.5-0.1,1.3-0.1,2.2v21.7c0,2.4,0.3,4.1,0.8,5.2s1.6,1.6,3.1,1.6c0.6,0,1.1-0.1,1.6-0.2
			c0.4-0.2,0.8-0.4,1.1-0.8c0.3-0.4,0.5-0.7,0.6-1c0.1-0.3,0.3-0.8,0.3-1.4c0.1-0.6,0.1-1.2,0.1-1.6c0-0.4,0-1,0-1.8v-4.7h9.1v4.1
			c0,2.3-0.2,4.2-0.6,5.9c-0.4,1.7-1.1,3.2-2,4.6c-1,1.4-2.2,2.4-4,3.1S848.4,150.4,846.1,150.4z"/>
		<path class="st2" d="M864.6,149.8v-48.6h9.3v19.9h8v-19.9h9.3v48.6H882v-21.6h-8v21.6H864.6z"/>
		<path class="st2" d="M898.5,149.8v-48.6h9.3v48.6H898.5z"/>
		<path class="st2" d="M914.6,149.8v-48.6h6.5l10.2,25.2v-25.2h7.8v48.6h-6.2l-10.3-26.9v26.9H914.6z"/>
		<path class="st2" d="M957.6,150.4c-2.2,0-4.2-0.4-5.9-1.2s-2.9-1.9-3.9-3.4s-1.6-3.2-2.1-5.3c-0.4-2-0.7-4.3-0.7-7v-16
			c0-2.2,0.1-4.1,0.4-5.8c0.3-1.7,0.7-3.2,1.4-4.7c0.6-1.4,1.5-2.6,2.5-3.6c1-0.9,2.3-1.6,3.8-2.1c1.6-0.5,3.3-0.8,5.3-0.8
			c2.4,0,4.4,0.3,6.1,0.9c1.7,0.7,3.1,1.6,4.1,2.9s1.7,2.7,2.2,4.5c0.5,1.7,0.7,3.7,0.7,6v2.7h-9.1v-3.3c0-0.9,0-1.6-0.1-2.2
			c-0.1-0.5-0.1-1.2-0.3-1.8c-0.1-0.6-0.3-1.1-0.6-1.4c-0.3-0.3-0.7-0.7-1.2-0.9c-0.5-0.2-1.1-0.3-1.8-0.3c-0.7,0-1.4,0.2-1.9,0.4
			c-0.5,0.3-0.9,0.6-1.2,1c-0.3,0.4-0.5,1-0.7,1.7c-0.1,0.7-0.3,1.4-0.3,1.9c0,0.5-0.1,1.3-0.1,2.3v21.1c0,2.4,0.3,4.2,0.9,5.4
			c0.6,1.2,1.8,1.9,3.4,1.9c1.7,0,2.9-0.7,3.5-2c0.7-1.3,1-3.2,1-5.7V131h-4.5v-6.1h12.9v25h-6.1l-0.6-4.5
			C963.8,148.7,961.3,150.4,957.6,150.4z"/>
	</g>
</g>
</svg>
