<svg id="Layer_1" data-name="Layer 1" xmlns="http://www.w3.org/2000/svg" xmlns:xlink="http://www.w3.org/1999/xlink" viewBox="0 0 1366 474.4"><defs><style>.cls-1,.cls-5{fill:none;}.cls-2{clip-path:url(#clip-path);}.cls-3{opacity:0.44;}.cls-4,.cls-9{fill:#fff;}.cls-5{stroke:#fff;stroke-miterlimit:10;stroke-width:45.62px;}.cls-6{clip-path:url(#clip-path-2);}.cls-7{fill:#78bbc0;}.cls-8{opacity:0.47;}.cls-9{font-size:109.26px;font-family:Oswald-SemiBold, Oswald;font-weight:700;}.cls-10{font-size:155px;font-family:SignPainter-HouseScriptSemibold, SignPainter;}</style><clipPath id="clip-path"><rect class="cls-1" x="-0.32" y="588.06" width="1366.68" height="477"/></clipPath><clipPath id="clip-path-2"><rect class="cls-1" x="-1.92" y="1.04" width="1366.68" height="477"/></clipPath></defs><title>Artboard 91 copy 2</title><g class="cls-2"><g class="cls-3"><rect class="cls-4" x="227.55" y="442.03" width="914.99" height="769.07"/><line class="cls-5" x1="127.47" y1="442.03" x2="127.47" y2="1211.09"/><line class="cls-5" x1="1238.53" y1="442.03" x2="1238.53" y2="1211.09"/></g></g><g class="cls-6"><rect class="cls-7" x="-1.92" y="-2.6" width="1366.68" height="477"/><g class="cls-8"><circle class="cls-4" cx="181.52" cy="374.29" r="8.62"/><rect class="cls-4" x="172.9" y="394.87" width="413.81" height="242.77" rx="23.42" ry="23.42"/><circle class="cls-4" cx="242.44" cy="374.29" r="8.62"/><circle class="cls-4" cx="211.98" cy="374.29" r="8.62"/><rect class="cls-4" x="1032.71" y="394.87" width="124.14" height="242.77" rx="18.93" ry="18.93"/><path class="cls-4" d="M1190.07,298.85H144.6a61.21,61.21,0,0,0-61.21,61.21V949h1167.9v-589A61.21,61.21,0,0,0,1190.07,298.85Zm-4.83,582A13.13,13.13,0,0,1,1172.12,894H156.76a13.13,13.13,0,0,1-13.13-13.13v-516a13.13,13.13,0,0,1,13.13-13.13H1172.12a13.13,13.13,0,0,1,13.13,13.13Z"/><rect class="cls-4" x="601.88" y="394.87" width="413.81" height="242.77" rx="23.42" ry="23.42"/></g></g><text class="cls-9" transform="translate(243.32 264.89) scale(0.76 1)"><tspan xml:space="preserve">WE GET AN  </tspan><tspan class="cls-10" x="511.67" y="0">A</tspan><tspan x="580.18" y="0" xml:space="preserve">  IN TEACHING</tspan></text></svg>