<?xml version="1.0" encoding="utf-8"?>
<!-- Generator: Adobe Illustrator 21.0.2, SVG Export Plug-In . SVG Version: 6.00 Build 0)  -->
<svg version="1.1" id="Layer_1" xmlns="http://www.w3.org/2000/svg" xmlns:xlink="http://www.w3.org/1999/xlink" x="0px" y="0px"
	 viewBox="0 0 1366 474.4" style="enable-background:new 0 0 1366 474.4;" xml:space="preserve">
<style type="text/css">
	.st0{clip-path:url(#SVGID_2_);}
	.st1{opacity:0.44;}
	.st2{fill:#FFFFFF;}
	.st3{fill:none;stroke:#FFFFFF;stroke-width:45.62;stroke-miterlimit:10;}
	.st4{clip-path:url(#SVGID_4_);}
	.st5{fill:#78BBC0;}
	.st6{opacity:0.47;}
	.st7{enable-background:new    ;}
</style>
<title>Artboard 91 copy 2</title>
<g>
	<g>
		<defs>
			<rect id="SVGID_1_" x="-0.3" y="588.1" width="1366.7" height="477"/>
		</defs>
		<clipPath id="SVGID_2_">
			<use xlink:href="#SVGID_1_"  style="overflow:visible;"/>
		</clipPath>
		<g class="st0">
			<g class="st1">
				<rect x="227.6" y="442" class="st2" width="915" height="769.1"/>
				<line class="st3" x1="127.5" y1="442" x2="127.5" y2="1211.1"/>
				<line class="st3" x1="1238.5" y1="442" x2="1238.5" y2="1211.1"/>
			</g>
		</g>
	</g>
</g>
<g>
	<g>
		<defs>
			<rect id="SVGID_3_" x="-1.9" y="-0.6" width="1366.7" height="478.6"/>
		</defs>
		<clipPath id="SVGID_4_">
			<use xlink:href="#SVGID_3_"  style="overflow:visible;"/>
		</clipPath>
		<g class="st4">
			<rect x="-1.9" y="-4.2" class="st5" width="1366.7" height="478.6"/>
			<g class="st6">
				<ellipse class="st2" cx="181.5" cy="373.9" rx="8.6" ry="8.6"/>
				<path class="st2" d="M196.3,394.6h367c12.9,0,23.4,10.5,23.4,23.5v196.6c0,12.9-10.5,23.5-23.4,23.5h-367
					c-12.9,0-23.4-10.5-23.4-23.5V418.1C172.9,405.2,183.4,394.6,196.3,394.6z"/>
				<ellipse class="st2" cx="242.4" cy="373.9" rx="8.6" ry="8.6"/>
				<ellipse class="st2" cx="212" cy="373.9" rx="8.6" ry="8.6"/>
				<path class="st2" d="M1051.6,394.6h86.3c10.5,0,18.9,8.5,18.9,19v205.6c0,10.5-8.5,19-18.9,19h-86.3c-10.5,0-18.9-8.5-18.9-19
					V413.6C1032.7,403,1041.2,394.6,1051.6,394.6z"/>
				<path class="st2" d="M1190.1,298.3H144.6c-33.8,0-61.2,27.5-61.2,61.4v590.9h1167.9v-591
					C1251.3,325.7,1223.9,298.2,1190.1,298.3z M1185.2,882.2c0,7.3-5.9,13.1-13.1,13.2l0,0H156.8c-7.3,0-13.1-5.9-13.1-13.1l0,0
					V364.5c0-7.3,5.9-13.1,13.1-13.1l0,0h1015.4c7.3,0,13.1,5.9,13.1,13.1l0,0L1185.2,882.2z"/>
				<path class="st2" d="M625.3,394.6h367c12.9,0,23.4,10.5,23.4,23.5v196.6c0,12.9-10.5,23.5-23.4,23.5h-367
					c-12.9,0-23.4-10.5-23.4-23.5V418.1C601.9,405.2,612.4,394.6,625.3,394.6z"/>
			</g>
		</g>
	</g>
</g>
<g class="st7">
	<path class="st2" d="M254.6,264.9l-8.8-88.5h11.6l4.7,53.9l6-53.9h9.1l6.3,53.8l4.7-53.8h11.4l-8.8,88.5h-11.5l-6.6-55.9l-6.4,55.9
		H254.6z"/>
	<path class="st2" d="M307.1,264.9v-88.5h29.3v12.5h-15.6v23.4h12.1v12.6h-12.1v27.7h15.8v12.3H307.1z"/>
	<path class="st2" d="M381.5,266.1c-3.3,0-6.2-0.7-8.6-2.1s-4.3-3.5-5.7-6.2c-1.4-2.7-2.4-5.9-3.1-9.6c-0.6-3.6-1-7.9-1-12.7v-29.1
		c0-4,0.2-7.5,0.6-10.6s1.1-5.9,2-8.6c0.9-2.6,2.2-4.8,3.6-6.5c1.5-1.7,3.4-3,5.6-3.9c2.3-0.9,4.9-1.4,7.8-1.4c3.5,0,6.5,0.6,9,1.7
		c2.5,1.2,4.5,2.9,6,5.2s2.5,5,3.2,8.1s1,6.7,1,10.9v5h-13.3v-6c0-1.6,0-3-0.1-4s-0.2-2.1-0.4-3.2c-0.2-1.1-0.5-2-0.9-2.6
		s-1-1.2-1.7-1.6c-0.7-0.4-1.6-0.6-2.7-0.6s-2,0.3-2.8,0.8s-1.3,1.1-1.7,1.9c-0.4,0.7-0.7,1.8-1,3.1c-0.2,1.3-0.4,2.5-0.4,3.5
		s-0.1,2.4-0.1,4.1v38.4c0,4.3,0.4,7.6,1.3,9.8s2.6,3.4,5,3.4c2.5,0,4.2-1.2,5.1-3.6c1-2.4,1.4-5.8,1.4-10.3v-8.7H383v-11.1h18.9
		v45.5h-9L392,257C390.5,263,386.9,266.1,381.5,266.1z"/>
	<path class="st2" d="M411.7,264.9v-88.5H441v12.5h-15.6v23.4h12.1v12.6h-12.1v27.7h15.8v12.3H411.7z"/>
	<path class="st2" d="M454.4,264.9v-75.2h-10.7v-13.3h35v13.3H468v75.2H454.4z"/>
	<path class="st2" d="M501.7,264.9l13.1-88.5h15l13.1,88.5h-12.7l-2.5-19.6H517l-2.5,19.6H501.7z M518.4,234.2h8l-4-35.2
		L518.4,234.2z"/>
	<path class="st2" d="M549.6,264.9v-88.5h9.5l15,45.9v-45.9h11.4v88.5h-9.1L561.3,216v48.9H549.6z"/>
</g>
<g class="st7">
	<path class="st2" d="M666.9,251.6c0-2.8,0-6.4,0.4-10.4l-8.2,1.1c-4.7,0.6-9.3,1.2-12.6,1.1c-3.2,7.3-5.8,15-8.5,21.4
		c-1.4,3.3-3.4,2.6-4.2,0.5c-0.7-1.9-1.4-3.3-1.4-5.7s0.5-6,1.9-10.5c0.7-2.3,1.5-5,2.8-8.2c-2.1-2-3.2-4.2-3.5-5.1
		c-0.9-2.9-0.5-3.9,2.6-3.3c1.6,0.3,2.6,0.5,4.2,0.6c8.8-20.3,25.1-50.2,37.5-64c2.6-2.8,4.4-2.6,6.1,0.5c1.2,2,1.9,3.7,2.7,6.4
		c0.6,1.9,0.9,3.6,0.9,5.4s-0.2,4-0.9,6.4c-2.7,11.2-6,27.3-8.2,43.6c3.2,1.9,4.4,4.8,5.2,8.1c0.6,2.5-0.2,3.1-2.4,2.6l-4.1-0.9
		c-0.7,7.8-1.3,15.7-1.5,23.2c0,2.8-1.5,3.4-3.7,2.2C669.3,264.6,667.1,260.5,666.9,251.6z M675.2,190.3c-7.5,11.9-16,26.8-23.4,42
		c2.4-0.3,4.7-0.6,7-1.1c4-0.6,6.6-1.2,9.8-1.4C669.9,217,672.2,202,675.2,190.3z"/>
</g>
<g class="st7">
	<path class="st2" d="M731.2,264.9v-88.5h13.6v88.5H731.2z"/>
	<path class="st2" d="M755,264.9v-88.5h9.5l15,45.9v-45.9h11.4v88.5h-9.1L766.6,216v48.9H755z"/>
	<path class="st2" d="M828.1,264.9v-75.2h-10.7v-13.3h35v13.3h-10.6v75.2H828.1z"/>
	<path class="st2" d="M857.9,264.9v-88.5h29.3v12.5h-15.6v23.4h12.1v12.6h-12.1v27.7h15.8v12.3H857.9z"/>
	<path class="st2" d="M890.9,264.9l13.1-88.5h15l13.1,88.5h-12.7l-2.5-19.6h-10.7l-2.5,19.6H890.9z M907.6,234.2h8l-4-35.2
		L907.6,234.2z"/>
	<path class="st2" d="M957.5,266.1c-3.7,0-6.8-0.7-9.4-2.1c-2.6-1.4-4.6-3.5-6.1-6.2c-1.5-2.7-2.6-5.8-3.2-9.3
		c-0.6-3.5-1-7.5-1-12.2v-31.2c0-4.8,0.3-9,1-12.5c0.6-3.5,1.7-6.6,3.2-9.3s3.5-4.7,6.1-6c2.6-1.4,5.7-2,9.4-2c3.5,0,6.5,0.6,9,1.8
		s4.4,2.9,5.8,5.3c1.4,2.3,2.4,5,3.1,8c0.6,3,1,6.5,1,10.5v7.7H963v-8.3c0-1,0-1.7,0-2.1c0-0.4,0-1,0-1.9s-0.1-1.5-0.1-1.9
		c-0.1-0.4-0.2-0.9-0.3-1.6c-0.1-0.7-0.3-1.2-0.4-1.5c-0.2-0.3-0.4-0.7-0.7-1.2s-0.6-0.8-1-1s-0.8-0.4-1.3-0.5s-1-0.2-1.6-0.2
		c-1.1,0-2,0.2-2.7,0.7s-1.3,1.1-1.7,1.8s-0.7,1.7-0.9,2.9s-0.4,2.4-0.4,3.4c-0.1,1-0.1,2.4-0.1,4v39.5c0,4.3,0.4,7.5,1.2,9.5
		s2.4,3,4.6,3c0.9,0,1.6-0.1,2.3-0.4c0.6-0.3,1.2-0.8,1.6-1.4c0.4-0.7,0.7-1.3,0.9-1.9c0.2-0.6,0.4-1.5,0.5-2.6s0.2-2.1,0.2-2.9
		c0-0.8,0-1.9,0-3.3v-8.6h13.3v7.5c0,4.1-0.3,7.7-0.9,10.8s-1.6,5.9-3,8.3c-1.4,2.5-3.3,4.4-5.8,5.7S961,266.1,957.5,266.1z"/>
	<path class="st2" d="M984.7,264.9v-88.5h13.7v36.3h11.8v-36.3h13.7v88.5h-13.7v-39.3h-11.8v39.3H984.7z"/>
	<path class="st2" d="M1034.4,264.9v-88.5h13.6v88.5H1034.4z"/>
	<path class="st2" d="M1058.1,264.9v-88.5h9.5l15,45.9v-45.9h11.4v88.5h-9.1l-15.1-48.9v48.9H1058.1z"/>
	<path class="st2" d="M1121.2,266.1c-3.3,0-6.2-0.7-8.6-2.1s-4.3-3.5-5.7-6.2c-1.4-2.7-2.4-5.9-3.1-9.6c-0.6-3.6-1-7.9-1-12.7v-29.1
		c0-4,0.2-7.5,0.6-10.6s1.1-5.9,2-8.6c0.9-2.6,2.2-4.8,3.6-6.5c1.5-1.7,3.4-3,5.6-3.9c2.3-0.9,4.9-1.4,7.8-1.4c3.5,0,6.5,0.6,9,1.7
		c2.5,1.2,4.5,2.9,6,5.2s2.5,5,3.2,8.1s1,6.7,1,10.9v5h-13.3v-6c0-1.6,0-3-0.1-4s-0.2-2.1-0.4-3.2c-0.2-1.1-0.5-2-0.9-2.6
		s-1-1.2-1.7-1.6c-0.7-0.4-1.6-0.6-2.7-0.6s-2,0.3-2.8,0.8s-1.3,1.1-1.7,1.9c-0.4,0.7-0.7,1.8-1,3.1c-0.2,1.3-0.4,2.5-0.4,3.5
		s-0.1,2.4-0.1,4.1v38.4c0,4.3,0.4,7.6,1.3,9.8s2.6,3.4,5,3.4c2.5,0,4.2-1.2,5.1-3.6c1-2.4,1.4-5.8,1.4-10.3v-8.7h-6.6v-11.1h18.9
		v45.5h-9l-0.9-8.1C1130.3,263,1126.6,266.1,1121.2,266.1z"/>
</g>
</svg>
