<svg id="Layer_1" data-name="Layer 1" xmlns="http://www.w3.org/2000/svg" viewBox="0 0 225.33 225.33"><defs><style>.cls-1{fill:#fff;}</style></defs><title>Artboard 86</title><path class="cls-1" d="M112.67,0A112.67,112.67,0,1,0,225.33,112.67,112.67,112.67,0,0,0,112.67,0ZM64,148a33.14,33.14,0,0,1-16.29-3.89C39,139.52,31.41,127.85,31,112.67c-.74-37.4,32.4-70.92,53.33-80.36A42.43,42.43,0,0,1,99,29.16,18.77,18.77,0,0,1,111,33c6.3,5.56,11.11,12.78,11.11,20a24,24,0,0,1-2.59,10.74,128.23,128.23,0,0,0-7,16.67c-.93,3.15-3.52,5-7.22,2.78A13.73,13.73,0,0,1,99,71.38a23,23,0,0,1,1.11-6.85A79.27,79.27,0,0,1,103.25,56c2.59-6.48,4.81-12.41,2.59-14.81C101.4,36.38,75.11,52.49,59.74,77.3c-8.15,13.15-11.67,28.33-11.67,39.44,0,15.92,7,23,13.7,23,10.18,0,23.33-11.85,34.07-32.4,1.3-2.59,5.56-3.7,7.41.56a15.13,15.13,0,0,1,1.3,6.11c0,10.74-10,21.48-16.67,26.48A41,41,0,0,1,64,148Zm119.51-25.91c-4.17,5.56-9.21,14.6-11.64,18.77-1.56,2.78-3.48,4.17-6.78.7a12.82,12.82,0,0,1-4.17-9.38c0-3.82,2.26-10.43,8-18.07,4.34-6.43,9-14.08,6.6-15.81-6.43-4.69-44.49,20.85-45.36,40.84-.52,11.47,23.29,21.38,30.06,26.24,3.3,2.43,5.21,5.56,5.21,8.86,0,4-2.26,8.52-6.78,13.9-4.52,5.21-13,8.86-23.46,8.86-12.69,0-29.54-7.12-43.27-22.94-2.43-3-1.22-4.87,1.22-5.73a23.55,23.55,0,0,1,5.39-.52,21.46,21.46,0,0,1,13.55,4.34c6.78,5.56,18.25,14.25,28.33,14.25,3.82,0,7.3-.87,9.21-2.78a4.74,4.74,0,0,0-.17-7.3c-12.51-9.73-36.67-19.12-36.67-36.84,0-23.63,27.11-44.31,42.75-50.92a31.2,31.2,0,0,1,13.38-3,16,16,0,0,1,10.6,3.65,32.55,32.55,0,0,1,9.21,14.95C190.46,111.35,186.12,118.31,183.51,122.13Z"/></svg>