<?xml version="1.0" encoding="utf-8"?>
<!-- Generator: Adobe Illustrator 21.0.2, SVG Export Plug-In . SVG Version: 6.00 Build 0)  -->
<svg version="1.1" id="Layer_1" xmlns="http://www.w3.org/2000/svg" xmlns:xlink="http://www.w3.org/1999/xlink" x="0px" y="0px"
	 viewBox="0 0 1366 477" style="enable-background:new 0 0 1366 477;" xml:space="preserve">
<style type="text/css">
	.st0{fill:#0D3557;}
	.st1{opacity:0.4;fill:#FFFFFF;enable-background:new    ;}
</style>
<title>Artboard 91</title>
<rect x="-0.3" y="-4" class="st0" width="1366.7" height="481"/>
<path class="st1" d="M1327.9,128.6H36.6c-20.4,0-36.9,16.5-36.9,36.9c0,0,0,0,0,0v209.1h1365.2V165.6
	C1364.9,145.2,1348.3,128.6,1327.9,128.6C1327.9,128.6,1327.9,128.6,1327.9,128.6z M278.2,364.3h-83.8L236.3,257h83.8L278.2,364.3z
	 M236.3,246.5l-41.9-107.4h83.8l41.9,107.4H236.3z M448.4,364.3h-83.8L406.5,257h83.8L448.4,364.3z M406.5,246.5l-41.9-107.4h83.8
	l41.9,107.4H406.5z M618.6,364.3h-83.8L576.7,257h83.8L618.6,364.3z M576.7,246.5l-41.9-107.4h83.8l41.9,107.4H576.7z M788.8,364.3
	H705L746.9,257h83.8L788.8,364.3z M746.9,246.5L705,139.1h83.8l41.9,107.4H746.9z M959,364.3h-83.8L917.1,257h83.8L959,364.3z
	 M917.1,246.5l-41.9-107.4H959l41.9,107.4H917.1z M1129.2,364.3h-83.8l41.9-107.3h83.8L1129.2,364.3z M1087.3,246.5l-41.9-107.4
	h83.8l41.9,107.4H1087.3z M1299.4,364.3h-83.8l41.9-107.3h83.8L1299.4,364.3z M1257.5,246.5l-41.9-107.4h83.8l41.9,107.4H1257.5z"/>
</svg>
