<svg id="Layer_1" data-name="Layer 1" xmlns="http://www.w3.org/2000/svg" viewBox="0 0 1366 477"><defs><style>.cls-1{fill:#0d3557;}.cls-2{fill:#fff;opacity:0.4;}</style></defs><title>Artboard 91</title><rect class="cls-1" x="-0.32" width="1366.68" height="477"/><path class="cls-2" d="M1327.94,128.65H36.62A36.94,36.94,0,0,0-.32,165.59V374.73h1365.2V165.59A36.94,36.94,0,0,0,1327.94,128.65ZM278.22,364.31H194.43L236.33,257h83.79Zm-41.9-117.83-41.9-107.36h83.79l41.9,107.36ZM448.42,364.31H364.63L406.53,257h83.79Zm-41.9-117.83-41.9-107.36h83.79l41.9,107.36ZM618.62,364.31H534.83L576.73,257h83.79Zm-41.9-117.83-41.9-107.36h83.79l41.9,107.36ZM788.82,364.31H705L746.93,257h83.79Zm-41.9-117.83L705,139.12h83.79l41.9,107.36ZM959,364.31H875.23L917.13,257h83.79Zm-41.9-117.83-41.9-107.36H959l41.9,107.36Zm212.09,117.83h-83.79L1087.33,257h83.79Zm-41.9-117.83-41.9-107.36h83.79l41.9,107.36Zm212.09,117.83h-83.79L1257.53,257h83.79Zm-41.9-117.83-41.9-107.36h83.79l41.9,107.36Z"/></svg>