<svg id="Layer_1" data-name="Layer 1" xmlns="http://www.w3.org/2000/svg" viewBox="0 0 300 300"><defs><style>.cls-1{fill:#ed5943;}.cls-2,.cls-6{fill:#dcdbdb;}.cls-3{fill:#1e1e1e;}.cls-4{fill:#c5e7e8;}.cls-5{fill:#bababa;}.cls-6{stroke:#fff;stroke-width:4.32px;}.cls-6,.cls-8{stroke-linecap:round;stroke-miterlimit:10;}.cls-7{fill:#0d3557;}.cls-8{fill:none;stroke:#0d3557;stroke-width:5.14px;}.cls-9{fill:#f3a11e;}</style></defs><title>Artboard 2 copy 15</title><circle class="cls-1" cx="150" cy="150" r="150"/><path class="cls-2" d="M53.21,65.1H246.79a12,12,0,0,1,12,12V193.73a17.91,17.91,0,0,1-17.91,17.91H59.17a17.91,17.91,0,0,1-17.91-17.91V77.06A12,12,0,0,1,53.21,65.1Z"/><path class="cls-3" d="M52.65,65.1H247.35a11.4,11.4,0,0,1,11.4,11.4V186.19a0,0,0,0,1,0,0H41.25a0,0,0,0,1,0,0V76.5A11.4,11.4,0,0,1,52.65,65.1Z"/><rect class="cls-4" x="52.47" y="74.96" width="193.98" height="100.98" rx="2.44" ry="2.44"/><polygon class="cls-5" points="175.89 234.9 126.98 234.9 129.86 211.65 172.44 211.65 175.89 234.9"/><line class="cls-6" x1="110.87" y1="234.9" x2="192" y2="234.9"/><circle class="cls-3" cx="151.44" cy="198.4" r="4.33"/><rect class="cls-7" x="57.92" y="82.98" width="77.06" height="45.21" rx="4.36" ry="4.36"/><rect class="cls-7" x="137.81" y="82.98" width="77.06" height="45.21" rx="4.36" ry="4.36"/><line class="cls-8" x1="62.97" y1="132.65" x2="129.93" y2="132.65"/><line class="cls-8" x1="142.86" y1="132.65" x2="209.82" y2="132.65"/><rect class="cls-9" x="57.92" y="139" width="156.95" height="33.2" rx="4.32" ry="4.32"/><rect class="cls-7" x="218.04" y="82.98" width="23.12" height="45.21" rx="3.53" ry="3.53"/><rect class="cls-7" x="218.04" y="130.25" width="23.12" height="41.96" rx="3.53" ry="3.53"/><rect class="cls-7" x="60.66" y="141.89" width="10.96" height="28.26" rx="3.28" ry="3.28"/><circle class="cls-1" cx="59.53" cy="79.15" r="1.61"/><circle class="cls-1" cx="65.2" cy="79.15" r="1.61"/><circle class="cls-1" cx="70.87" cy="79.15" r="1.61"/></svg>