<svg id="Layer_1" data-name="Layer 1" xmlns="http://www.w3.org/2000/svg" viewBox="0 0 300 300"><defs><style>.cls-1{fill:#0d3557;}.cls-2{fill:#42311b;}.cls-3{fill:#ed5943;}.cls-4{fill:#edc496;}.cls-5{fill:#f4d5a8;}</style></defs><title>Artboard 2 copy 17</title><circle class="cls-1" cx="150" cy="150" r="150"/><path class="cls-2" d="M91.78,122H204.51a0,0,0,0,1,0,0V177.7A43.54,43.54,0,0,1,161,221.24H135.32A43.54,43.54,0,0,1,91.78,177.7V122a0,0,0,0,1,0,0Z"/><ellipse class="cls-3" cx="150" cy="216.26" rx="58.22" ry="28"/><ellipse class="cls-2" cx="148.14" cy="122" rx="56.37" ry="66.26"/><rect class="cls-4" x="135.58" y="166.06" width="25.01" height="22.21"/><ellipse class="cls-5" cx="147.69" cy="125.78" rx="38.7" ry="47.82"/><path class="cls-2" d="M181.71,79.18c-12.95-11.12-26.54-17.5-34-16.56-7.64-.18-20.49,6-32.77,16.52C98.8,92.93,89.73,108.84,94.71,114.67s22.12-.6,38.28-14.38a91,91,0,0,0,15.37-16.53,91.16,91.16,0,0,0,15.24,16.5c16.11,13.84,33.23,20.34,38.23,14.52S197.82,93,181.71,79.18Z"/><path class="cls-4" d="M135.58,188.27l10.2,24.27a2.66,2.66,0,0,0,4.92,0l9.89-24.24Z"/></svg>