<svg id="Layer_1" data-name="Layer 1" xmlns="http://www.w3.org/2000/svg" viewBox="0 0 150 150"><defs><style>.cls-1{fill:#0d3557;}.cls-2{fill:#896e51;}.cls-3{fill:#ed5943;}.cls-4{fill:#edc496;}.cls-5{fill:#f4d5a8;}</style></defs><title>Artboard 2 copy 34</title><circle class="cls-1" cx="75" cy="75" r="75"/><path class="cls-2" d="M46.75,61.42h54.7a0,0,0,0,1,0,0v20.8A27.35,27.35,0,0,1,74.1,109.56h0A27.35,27.35,0,0,1,46.75,82.22V61.42a0,0,0,0,1,0,0Z"/><path class="cls-3" d="M103.25,107.15c0,13.58-12.65,13.58-28.25,13.58s-28.25,0-28.25-13.58c0-7.5,12.65-13.58,28.25-13.58S103.25,99.65,103.25,107.15Z"/><ellipse class="cls-2" cx="74.1" cy="61.42" rx="27.35" ry="32.15"/><rect class="cls-4" x="68" y="82.79" width="12.13" height="10.77"/><ellipse class="cls-5" cx="73.88" cy="63.25" rx="18.78" ry="23.2"/><path class="cls-2" d="M90.39,40.64c-6.28-5.4-12.88-8.49-16.48-8-3.71-.09-9.94,2.94-15.9,8C50.16,47.31,45.76,55,48.17,57.86s10.73-.29,18.57-7a44.16,44.16,0,0,0,7.46-8,44.23,44.23,0,0,0,7.4,8c7.82,6.72,16.12,9.87,18.55,7S98.2,47.36,90.39,40.64Z"/></svg>